<?xml version="1.0" encoding="UTF-8"?>
<svg width="148px" height="134px" viewBox="0 0 148 134" version="1.1" xmlns="http://www.w3.org/2000/svg" xmlns:xlink="http://www.w3.org/1999/xlink" preserveAspectRatio="xMidYMid">
    <g fill-rule="evenodd">
				<path d="M58.3810315,0.260624246 L58.4760241,0.260624246 L58.5607287,0.261653048 L59.045637,0.261653048 L59.1303416,0.265082384 L59.1406296,0.265082384 L59.2253342,0.268511721 L59.2345934,0.268511721 L59.3203269,0.271941058 L59.3271855,0.271941058 L59.412919,0.275370395 L59.423207,0.275370395 L59.5055111,0.278799732 L59.5157991,0.278799732 L59.5981031,0.282229069 L59.6049618,0.282229069 L59.6906952,0.285658406 L59.7009833,0.285658406 L59.7867167,0.29251708 L59.7970047,0.29251708 L59.8793088,0.299375754 L59.8861674,0.299375754 L59.9684715,0.306234427 L59.9787595,0.306234427 L60.064493,0.313093101 L60.0713516,0.313093101 L60.1536557,0.319951775 L60.1639437,0.319951775 L60.2496772,0.326810449 L60.2599652,0.326810449 L60.3456986,0.333669123 L60.3559866,0.333669123 L60.44172,0.340527796 L60.452008,0.340527796 L60.5343121,0.34738647 L60.5446001,0.34738647 L60.6269042,0.354245144 L60.6371922,0.354245144 L60.7229257,0.361103818 L60.7332137,0.361103818 L60.8189471,0.371391829 L60.8292351,0.371391829 L60.9149685,0.381679839 L60.9218272,0.381679839 L61.0041313,0.39196785 L61.0144193,0.39196785 L61.0967234,0.402255861 L61.1070114,0.402255861 L61.1927448,0.412543871 L61.2030328,0.412543871 L61.2887662,0.422831882 L61.2956249,0.422831882 L61.377929,0.433119893 L61.388217,0.433119893 L61.4739504,0.443407904 L61.4842384,0.443407904 L61.5665425,0.457125251 L61.5768305,0.460554588 L61.662564,0.474271936 L61.672852,0.474271936 L61.7551561,0.487989283 L61.7620147,0.487989283 L61.8477482,0.501706631 L61.8580362,0.501706631 L61.9403403,0.515423979 L61.9506283,0.515423979 L62.0329324,0.529141326 L62.039791,0.529141326 L62.1255244,0.542858674 L62.1358125,0.542858674 L62.2181165,0.556576021 L62.2284046,0.560005358 L62.3107086,0.573722706 L62.3209967,0.577152043 L62.4033007,0.594298727 L62.4135887,0.594298727 L62.4958928,0.608016075 L62.5061808,0.608016075 L62.5884849,0.62516276 L62.5987729,0.62516276 L62.6845064,0.642309444 L62.691365,0.642309444 L62.7736691,0.659456129 L62.7839571,0.659456129 L62.8662612,0.676602813 L62.8731199,0.676602813 L62.9588533,0.693749498 L62.9691413,0.697178835 L63.0548747,0.714325519 L63.0617334,0.714325519 L63.1440375,0.734901541 L63.1543255,0.738330877 L63.2366296,0.758906899 L63.2469176,0.758906899 L63.332651,0.77948292 L63.3395097,0.782912257 L63.4218138,0.800058942 L63.4321018,0.803488279 L63.5144059,0.820634963 L63.5212646,0.8240643 L63.6035687,0.844640322 L63.6138567,0.844640322 L63.6961608,0.865216343 L63.7064488,0.86864568 L63.7887528,0.889221701 L63.7956115,0.892651038 L63.8813449,0.91322706 L63.8882036,0.916656397 L63.9705077,0.937232418 L63.9807957,0.940661755 L64.0630998,0.961237776 L64.0699585,0.961237776 L64.1522626,0.985243135 L64.1625506,0.985243135 L64.248284,1.00581916 L64.258572,1.00924849 L64.3408761,1.02982451 L64.3511641,1.02982451 L64.4334682,1.05382987 L64.4437562,1.05725921 L64.5260603,1.08126457 L64.5363483,1.0846939 L64.6186524,1.10869926 L64.6289404,1.1121286 L64.7112445,1.13613396 L64.7181031,1.1395633 L64.8004072,1.16356865 L64.8106952,1.16699799 L64.8929993,1.19100335 L64.9032873,1.19443269 L64.9855914,1.21843804 L64.9958794,1.22186738 L65.0781835,1.24930208 L65.0850422,1.25273141 L65.1673463,1.28016611 L65.1776343,1.28016611 L65.2599384,1.3076008 L65.2702264,1.3076008 L65.3525305,1.3350355 L65.3628185,1.33846484 L65.4451226,1.36589953 L65.4554106,1.36932887 L65.5377147,1.39676356 L65.5445733,1.4001929 L65.6268774,1.4276276 L65.6371654,1.43105693 L65.7194695,1.45849163 L65.7263282,1.46192096 L65.8086323,1.48935566 L65.815491,1.492785 L65.8943657,1.52021969 L65.9046537,1.52364903 L65.9835285,1.55108372 L65.9938165,1.55451306 L66.0726912,1.58537709 L66.0829792,1.58880643 L66.1652833,1.61967046 L66.1755713,1.6230998 L66.2544461,1.65396383 L66.2613048,1.65739317 L66.3436088,1.68482786 L66.3504675,1.6882572 L66.4327716,1.71912123 L66.4430596,1.72255057 L66.5253637,1.7534146 L66.5356517,1.75684394 L66.6145265,1.78770797 L66.6248145,1.79113731 L66.7036892,1.82543068 L66.7105479,1.82886001 L66.792852,1.85972405 L66.80314,1.86315338 L66.8820147,1.89744675 L66.8923027,1.90087609 L66.9746068,1.93516946 L66.9848948,1.93859879 L67.0671989,1.97289216 L67.0740576,1.9763215 L67.1563617,2.01061487 L67.1632204,2.01404421 L67.2420951,2.04833758 L67.2489538,2.05176691 L67.3278285,2.08606028 L67.3346872,2.08948962 L67.4169913,2.12378299 L67.42385,2.12721232 L67.5027247,2.16150569 L67.5130127,2.16493503 L67.5918875,2.1992284 L67.6021755,2.20265774 L67.6810502,2.23695111 L67.6879089,2.24038044 L67.7667837,2.27810315 L67.7770717,2.28153248 L67.8559464,2.31925519 L67.8662344,2.32268453 L67.9451092,2.36040723 L67.9519678,2.36383657 L68.0308426,2.40155928 L68.0377013,2.40498861 L68.116576,2.44271132 L68.126864,2.44614066 L68.2057388,2.48386336 L68.2160268,2.4872927 L68.2949015,2.52501541 L68.3051896,2.52844474 L68.3840643,2.56616745 L68.390923,2.56959678 L68.4697977,2.61074883 L68.4766564,2.6176075 L68.5555311,2.65533021 L68.5623898,2.65875954 L68.6378352,2.69991159 L68.6481232,2.70334092 L68.726998,2.74106363 L68.7338567,2.74449297 L68.8127314,2.78564501 L68.8230194,2.78907435 L68.8984648,2.83022639 L68.9087528,2.83708506 L68.9876276,2.87823711 L68.9979156,2.88166644 L69.0767904,2.92281849 L69.083649,2.92624782 L69.1590944,2.96739987 L69.1693825,2.97425854 L69.2482572,3.01541058 L69.2551159,3.02226926 L69.3305613,3.06685064 L69.33742,3.07370931 L69.4128654,3.11829069 L69.4231534,3.12172003 L69.4985988,3.16630141 L69.5054575,3.16973074 L69.5809029,3.21431212 L69.5877616,3.2211708 L69.663207,3.26575218 L69.673495,3.27261085 L69.7455111,3.31719223 L69.7523697,3.31719223 L108.606757,26.146288 L108.671914,26.1840107 L108.678773,26.1908694 L108.74393,26.2285921 L108.754218,26.2320214 L108.815946,26.2731735 L108.822805,26.2800322 L108.884533,26.3177549 L108.891392,26.3246135 L108.95312,26.3623362 L108.959979,26.3657656 L109.021707,26.4034883 L109.028565,26.4069176 L109.090293,26.4446403 L109.097152,26.4480697 L109.15888,26.4857924 L109.169168,26.4892217 L109.230896,26.5303737 L109.237755,26.5338031 L109.299483,26.5749551 L109.309771,26.5783845 L109.371499,26.6161072 L109.378358,26.6195365 L109.440086,26.6606885 L109.446944,26.6675472 L109.508672,26.7086993 L109.515531,26.7155579 L109.57383,26.7532806 L109.584118,26.75671 L109.645846,26.797862 L109.652705,26.8012914 L109.714433,26.8424434 L109.721291,26.8458727 L109.77959,26.8870248 L109.786449,26.8904541 L109.844747,26.9316062 L109.851606,26.9350355 L109.909905,26.9761875 L109.916764,26.9830462 L109.975062,27.0241983 L109.981921,27.0276276 L110.04022,27.072209 L110.050508,27.0790676 L110.108806,27.1202197 L110.115665,27.123649 L110.173964,27.1648011 L110.180823,27.1682304 L110.239121,27.2093825 L110.24598,27.2162411 L110.304279,27.2573932 L110.311137,27.2608225 L110.369436,27.3019745 L110.376295,27.3088332 L110.434593,27.3499853 L110.441452,27.3568439 L110.499751,27.4014253 L110.510039,27.408284 L110.564908,27.4528654 L110.575196,27.459724 L110.633495,27.5043054 L110.643783,27.5077348 L110.702082,27.5523161 L110.70894,27.5591748 L110.767239,27.6037562 L110.774098,27.6106149 L110.828967,27.6551962 L110.839255,27.6620549 L110.897554,27.7100656 L110.907842,27.7203537 L111.017581,27.8095164 L111.031298,27.8198044 L111.141037,27.9123965 L111.154754,27.9226845 L111.267922,28.0152766 L111.28164,28.0255646 L111.394808,28.1181567 L111.408525,28.1284447 L111.518264,28.2210368 L111.531981,28.2347542 L111.64172,28.3273463 L111.655437,28.3376343 L111.761747,28.4336557 L111.775464,28.4439437 L111.881774,28.5399652 L111.895491,28.5502532 L112.0018,28.649704 L112.015518,28.659992 L112.118398,28.7560134 L112.132115,28.7663014 L112.238425,28.8657522 L112.252142,28.8794695 L112.355022,28.9789203 L112.368739,28.9926376 L112.47162,29.0920884 L112.485337,29.1058058 L112.584788,29.2052565 L112.598505,29.2189739 L112.697956,29.321854 L112.711673,29.3355713 L112.811124,29.4384514 L112.821412,29.4521688 L112.920863,29.5550489 L112.93458,29.5687662 L113.030601,29.6716463 L113.044319,29.6853637 L113.14034,29.7882438 L113.154058,29.8019612 L113.250079,29.9048413 L113.263796,29.9185586 L113.359818,30.0248681 L113.373535,30.0385854 L113.466127,30.1483242 L113.476415,30.1620415 L113.572437,30.268351 L113.586154,30.2820683 L113.678746,30.3918071 L113.692463,30.4055244 L113.785056,30.5152632 L113.795344,30.5289806 L113.887936,30.6387194 L113.901653,30.6524367 L113.990816,30.7621755 L114.001104,30.7758928 L114.090267,30.8856316 L114.103984,30.899349 L114.193147,31.0125171 L114.203435,31.0262344 L114.289168,31.1394025 L114.299456,31.1531199 L114.38519,31.266288 L114.395478,31.2800054 L114.481211,31.3931735 L114.491499,31.4103202 L114.577232,31.5269176 L114.58752,31.540635 L114.673254,31.6538031 L114.683542,31.6709498 L114.765846,31.7875472 L114.776134,31.8012646 L114.858438,31.917862 L114.868726,31.9315794 L114.95103,32.0481768 L114.961318,32.0653235 L115.040193,32.181921 L115.050481,32.1990676 L115.129356,32.3190944 L115.139644,32.3362411 L115.215089,32.4528386 L115.225377,32.4665559 L115.300823,32.5831534 L115.311111,32.5968707 L115.389985,32.7168975 L115.400273,32.7306149 L115.475719,32.8506417 L115.486007,32.8677883 L115.558023,32.9878151 L115.568311,33.0049618 L115.643756,33.1249886 L115.654044,33.1421353 L115.72606,33.2621621 L115.736348,33.2793088 L115.808364,33.4027649 L115.818652,33.4164823 L115.887239,33.5399384 L115.897527,33.5570851 L115.966114,33.6805412 L115.976402,33.6976879 L116.044989,33.821144 L116.055277,33.8382907 L116.123863,33.9617468 L116.130722,33.9788935 L116.199309,34.105779 L116.206167,34.1229257 L116.271325,34.2498111 L116.278184,34.2669578 L116.343341,34.3938433 L116.353629,34.4075606 L116.415357,34.5378754 L116.422216,34.5550221 L116.487373,34.6819076 L116.494232,34.6990543 L116.55596,34.8259397 L116.566248,34.8430864 L116.624547,34.9734012 L116.631405,34.9905479 L116.689704,35.1208627 L116.696563,35.1380094 L116.754861,35.2683242 L116.76172,35.2854709 L116.820019,35.4157857 L116.826877,35.4329324 L116.881747,35.5632472 L116.888605,35.5803938 L116.943475,35.7107086 L116.950334,35.7278553 L117.001774,35.8615995 L117.008632,35.8787461 L117.060072,36.009061 L117.066931,36.0262076 L117.118371,36.1599518 L117.12523,36.1770985 L117.17667,36.3108426 L117.183528,36.3279893 L117.234969,36.4617334 L117.241827,36.4788801 L117.289838,36.6126242 L117.296697,36.6297709 L117.341278,36.7635151 L117.348137,36.7806618 L117.392718,36.9144059 L117.399577,36.9315526 L117.444158,37.0652967 L117.451017,37.0824434 L117.495598,37.2196169 L117.499027,37.2367636 L117.54018,37.3705077 L117.547038,37.3876544 L117.58819,37.5248279 L117.59162,37.5419745 L117.632772,37.679148 L117.63963,37.6962947 L117.680782,37.8334682 L117.687641,37.8506149 L117.725364,37.9877883 L117.732222,38.004935 L117.769945,38.1421085 L117.773374,38.1592552 L117.807668,38.2964287 L117.814526,38.3170047 L117.852249,38.4576075 L117.855678,38.4747542 L117.889972,38.615357 L117.896831,38.6325037 L117.927695,38.7731065 L117.934553,38.7902532 L117.968847,38.930856 L117.972276,38.951432 L118.00314,39.0920348 L118.006569,39.1091815 L118.037433,39.2497843 L118.040863,39.266931 L118.068297,39.4075338 L118.071727,39.4246805 L118.099161,39.5652833 L118.102591,39.58243 L118.130025,39.7230328 L118.133455,39.7401795 L118.15746,39.8842117 L118.160889,39.9013583 L118.184895,40.0419612 L118.188324,40.0625372 L118.21233,40.2065693 L118.215759,40.2271453 L118.236335,40.3711775 L118.239764,40.3917535 L118.26034,40.5323563 L118.26034,40.5460737 L118.270628,40.6215191 L118.270628,40.6283778 L118.277487,40.7003938 L118.277487,40.7106818 L118.287775,40.7826979 L118.287775,40.7895566 L118.298063,40.8615727 L118.298063,40.8718607 L118.308351,40.9438768 L118.31178,40.9541648 L118.322068,41.0261808 L118.322068,41.0364689 L118.328927,41.1084849 L118.332356,41.1153436 L118.339215,41.1873597 L118.342644,41.1976477 L118.349503,41.2696638 L118.349503,41.2799518 L118.356362,41.3519678 L118.359791,41.3622559 L118.36665,41.4342719 L118.370079,41.4445599 L118.376938,41.516576 L118.376938,41.526864 L118.383796,41.5988801 L118.383796,41.6091681 L118.390655,41.6811842 L118.390655,41.6914722 L118.397514,41.7634883 L118.397514,41.7737763 L118.404372,41.8457924 L118.404372,41.8560804 L118.407802,41.9280965 L118.407802,41.9383845 L118.411231,42.0138299 L118.411231,42.0241179 L118.41809,42.0995633 L118.41809,42.106422 L118.421519,42.178438 L118.421519,42.1887261 L118.424948,42.2607421 L118.424948,42.2710301 L118.428378,42.3430462 L118.428378,42.3533342 L118.431807,42.4253503 L118.431807,42.4356383 L118.435236,42.5110837 L118.435236,42.5213717 L118.438666,42.5933878 L118.438666,42.6036758 L118.442095,42.6756919 L118.442095,42.6825506 L118.445524,42.7545666 L118.445524,90.6281098 L118.442095,90.7069846 L118.442095,90.8064354 L118.438666,90.8853101 L118.438666,90.8955981 L118.435236,90.9710435 L118.435236,90.9779022 L118.431807,91.056777 L118.431807,91.067065 L118.428378,91.1425104 L118.428378,91.1493691 L118.424948,91.2248145 L118.424948,91.2351025 L118.421519,91.3105479 L118.41809,91.3208359 L118.41466,91.3962813 L118.41466,91.4065693 L118.411231,91.4820147 L118.411231,91.4888734 L118.407802,91.5677482 L118.407802,91.5780362 L118.400943,91.6569109 L118.400943,91.6637696 L118.394084,91.7426443 L118.394084,91.7529324 L118.387226,91.8283778 L118.387226,91.8386658 L118.383796,91.9141112 L118.383796,91.9243992 L118.376938,91.9998446 L118.376938,92.0101326 L118.370079,92.085578 L118.370079,92.095866 L118.36322,92.1713115 L118.36322,92.1815995 L118.356362,92.2570449 L118.352932,92.2639035 L118.346074,92.3427783 L118.342644,92.3530663 L118.335786,92.4285117 L118.335786,92.4387997 L118.328927,92.5142451 L118.325498,92.5245332 L118.31521,92.5999786 L118.31521,92.6102666 L118.304922,92.685712 L118.304922,92.6925707 L118.294634,92.7680161 L118.294634,92.7783041 L118.284346,92.8537495 L118.280916,92.8640375 L118.270628,92.9429123 L118.267199,92.9532003 L118.256911,93.0286457 L118.253482,93.0389337 L118.243194,93.1143791 L118.243194,93.1246671 L118.232906,93.2001125 L118.232906,93.2104005 L118.222618,93.2858459 L118.219188,93.296134 L118.2089,93.3715794 L118.205471,93.3818674 L118.191754,93.4573128 L118.191754,93.4641715 L118.181466,93.5396169 L118.181466,93.5464756 L118.167748,93.621921 L118.164319,93.632209 L118.154031,93.7076544 L118.150601,93.7179424 L118.140313,93.7933878 L118.140313,93.8002465 L118.126596,93.8756919 L118.126596,93.8825506 L118.112879,93.957996 L118.112879,93.9648547 L118.099161,94.0403001 L118.099161,94.0505881 L118.085444,94.1226042 L118.082015,94.1328922 L118.068297,94.2049082 L118.064868,94.2151962 L118.051151,94.2906417 L118.047721,94.3009297 L118.030575,94.3763751 L118.030575,94.3832338 L118.013428,94.4586792 L118.013428,94.4655378 L117.999711,94.5375539 L117.999711,94.5478419 L117.982564,94.6232873 L117.982564,94.630146 L117.968847,94.7055914 L117.965417,94.7124501 L117.948271,94.7844662 L117.948271,94.7913248 L117.931124,94.8633409 L117.931124,94.8736289 L117.913977,94.945645 L117.910548,94.955933 L117.893401,95.0279491 L117.889972,95.0382371 L117.872825,95.1102532 L117.869396,95.1171119 L117.852249,95.1891279 L117.84882,95.1959866 L117.831673,95.2680027 L117.828244,95.2782907 L117.807668,95.3503068 L117.804238,95.3605948 L117.787092,95.4326109 L117.783662,95.4428989 L117.763086,95.5149149 L117.763086,95.5252029 L117.74251,95.6006484 L117.739081,95.6109364 L117.718505,95.6829524 L117.718505,95.6932405 L117.697929,95.7652565 L117.6945,95.7755445 L117.673924,95.8475606 L117.670494,95.8578486 L117.649918,95.933294 L117.646489,95.9401527 L117.625913,96.0121688 L117.622484,96.0190275 L117.601908,96.0910435 L117.598478,96.1013315 L117.574473,96.1733476 L117.571044,96.1836356 L117.550468,96.2556517 L117.547038,96.2625104 L117.526462,96.3345265 L117.523033,96.3448145 L117.502457,96.4168305 L117.499027,96.4236892 L117.475022,96.4957053 L117.471593,96.5059933 L117.447587,96.5780094 L117.444158,96.5882974 L117.420153,96.6603135 L117.416723,96.6706015 L117.392718,96.7426175 L117.389289,96.7529056 L117.365283,96.8249216 L117.361854,96.8317803 L117.337849,96.9037964 L117.334419,96.9140844 L117.310414,96.9861005 L117.306985,96.9963885 L117.282979,97.0684046 L117.27955,97.0752632 L117.255545,97.1472793 L117.252115,97.1575673 L117.22811,97.2295834 L117.224681,97.2398714 L117.197246,97.3084581 L117.193816,97.3187461 L117.169811,97.3873329 L117.166382,97.3976209 L117.142376,97.4662076 L117.138947,97.4764956 L117.114942,97.5485117 L117.111512,97.5587997 L117.084078,97.6308158 L117.080648,97.6411038 L117.053214,97.7096906 L117.049784,97.7199786 L117.02235,97.7885653 L117.01892,97.7988533 L116.991486,97.8674401 L116.988056,97.8777281 L116.960622,97.9463148 L116.957192,97.9566028 L116.929758,98.0251896 L116.926328,98.0354776 L116.898894,98.1040643 L116.895464,98.110923 L116.8646,98.1795097 L116.861171,98.1897977 L116.830307,98.2618138 L116.826877,98.2721018 L116.799443,98.3406885 L116.796013,98.3509766 L116.765149,98.4195633 L116.76172,98.4298513 L116.730856,98.498438 L116.727427,98.5087261 L116.696563,98.5773128 L116.693133,98.5841715 L116.662269,98.6527582 L116.65884,98.6630462 L116.627976,98.731633 L116.624547,98.7384916 L116.593683,98.8070784 L116.590253,98.813937 L116.559389,98.8825238 L116.55596,98.8893825 L116.525096,98.9579692 L116.521666,98.9648279 L116.487373,99.0334146 L116.483944,99.0402733 L116.44965,99.1054307 L116.446221,99.1157187 L116.415357,99.1843054 L116.411928,99.1911641 L116.377634,99.2563215 L116.374205,99.2666095 L116.343341,99.3351962 L116.339912,99.3420549 L116.305618,99.4106417 L116.302189,99.4209297 L116.267896,99.4895164 L116.264466,99.4963751 L116.230173,99.5615325 L116.226743,99.5683912 L116.19245,99.6369779 L116.189021,99.6472659 L116.154727,99.7158526 L116.151298,99.7261407 L116.117005,99.7947274 L116.110146,99.8050154 L116.075853,99.8701728 L116.072423,99.8770315 L116.03813,99.9456182 L116.034701,99.9559062 L116.000407,100.024493 L115.996978,100.034781 L115.959255,100.099938 L115.952397,100.106797 L115.914674,100.171954 L115.911244,100.178813 L115.873522,100.243971 L115.870092,100.250829 L115.83237,100.315987 L115.82894,100.322845 L115.791218,100.388003 L115.787788,100.394861 L115.750066,100.460019 L115.746636,100.470307 L115.708914,100.535464 L115.705484,100.542323 L115.667762,100.60748 L115.664332,100.617768 L115.62661,100.682926 L115.619751,100.689784 L115.582028,100.754942 L115.575169,100.7618 L115.537447,100.826958 L115.534017,100.833816 L115.496295,100.898974 L115.492865,100.909262 L115.451713,100.974419 L115.448284,100.981278 L115.410561,101.043006 L115.407132,101.053294 L115.369409,101.115022 L115.362551,101.121881 L115.321399,101.187038 L115.317969,101.197326 L115.276817,101.259054 L115.269958,101.265913 L115.228806,101.327641 L115.225377,101.3345 L115.184225,101.399657 L115.177366,101.409945 L115.136214,101.471673 L115.129356,101.478532 L115.088204,101.54026 L115.084774,101.547119 L115.043622,101.612276 L115.040193,101.619135 L114.999041,101.680863 L114.992182,101.687721 L114.947601,101.749449 L114.944171,101.756308 L114.903019,101.818036 L114.89959,101.824895 L114.855009,101.886623 L114.851579,101.893482 L114.810427,101.95521 L114.803569,101.962068 L114.762417,102.023796 L114.755558,102.030655 L114.710977,102.092383 L114.704118,102.099242 L114.662966,102.16097 L114.659537,102.167829 L114.614955,102.229557 L114.608096,102.239845 L114.566944,102.301573 L114.560086,102.308431 L114.515504,102.370159 L114.508646,102.377018 L114.464064,102.438746 L114.457206,102.445605 L114.412624,102.507333 L114.405766,102.514192 L114.361184,102.57592 L114.357755,102.582778 L114.313173,102.641077 L114.306315,102.647936 L114.261733,102.706234 L114.258304,102.713093 L114.210293,102.771392 L114.203435,102.778251 L114.158853,102.836549 L114.155424,102.843408 L114.110843,102.905136 L114.103984,102.911995 L114.055973,102.973723 L114.049115,102.980581 L114.001104,103.03888 L113.994245,103.045739 L113.946234,103.104038 L113.942805,103.110896 L113.894794,103.169195 L113.887936,103.176054 L113.839925,103.234352 L113.833066,103.241211 L113.785056,103.29951 L113.778197,103.306368 L113.730186,103.364667 L113.723328,103.371526 L113.675317,103.429825 L113.671887,103.436683 L113.623877,103.494982 L113.617018,103.501841 L113.565578,103.560139 L113.558719,103.566998 L113.510709,103.625297 L113.50385,103.632155 L113.455839,103.690454 L113.448981,103.697313 L113.40097,103.755612 L113.394111,103.76247 L113.3461,103.820769 L113.339242,103.827628 L113.291231,103.882497 L113.284372,103.889356 L113.232932,103.947654 L113.226074,103.954513 L113.178063,104.012812 L113.171204,104.01967 L113.119764,104.077969 L113.112906,104.084828 L113.064895,104.143127 L113.058036,104.149985 L113.006596,104.204855 L112.999737,104.211713 L112.948297,104.266583 L112.941439,104.273441 L112.889999,104.328311 L112.88314,104.335169 L112.8317,104.390039 L112.824841,104.396898 L112.773401,104.451767 L112.766543,104.458626 L112.715102,104.513495 L112.708244,104.520354 L112.656804,104.575223 L112.649945,104.582082 L112.598505,104.636951 L112.591646,104.64381 L112.536777,104.698679 L112.529918,104.705538 L112.478478,104.760407 L112.47162,104.767266 L112.42018,104.818706 L112.413321,104.825565 L112.358451,104.880434 L112.348163,104.887293 L112.293294,104.942162 L112.286435,104.949021 L112.231566,105.000461 L112.224707,105.007319 L112.169838,105.062189 L112.162979,105.069048 L112.10811,105.120488 L112.101251,105.127346 L112.046382,105.178786 L112.039523,105.185645 L111.984654,105.237085 L111.977795,105.243944 L111.922926,105.295384 L111.916067,105.302242 L111.861198,105.353683 L111.854339,105.360541 L111.79947,105.411981 L111.792611,105.41884 L111.734312,105.47028 L111.727453,105.473709 L111.672584,105.525149 L111.665725,105.532008 L111.607427,105.583448 L111.600568,105.590307 L111.542269,105.641747 L111.535411,105.645176 L111.477112,105.696616 L111.470253,105.703475 L111.411954,105.751486 L111.401666,105.758344 L111.343368,105.806355 L111.336509,105.813214 L111.27821,105.864654 L111.271352,105.871512 L111.213053,105.922952 L111.206194,105.929811 L111.147896,105.981251 L111.141037,105.98811 L111.082738,106.036121 L111.075879,106.042979 L111.014151,106.09099 L111.007293,106.094419 L110.948994,106.14243 L110.942135,106.149289 L110.883837,106.197299 L110.873549,106.204158 L110.81525,106.252169 L110.808391,106.259027 L110.750092,106.307038 L110.743234,106.313897 L110.684935,106.361908 L110.678076,106.368766 L110.616348,106.416777 L110.60949,106.423636 L110.551191,106.468217 L110.544332,106.475076 L110.482604,106.523086 L110.475745,106.529945 L110.414017,106.577956 L110.407159,106.584814 L110.345431,106.632825 L110.338572,106.639684 L110.276844,106.687695 L110.269985,106.691124 L110.208257,106.735705 L110.201399,106.739135 L110.13967,106.783716 L110.132812,106.787145 L110.071084,106.831727 L110.060796,106.835156 L109.999068,106.879737 L109.992209,106.886596 L109.930481,106.931177 L109.923622,106.938036 L109.861894,106.982618 L109.855035,106.989476 L109.793307,107.034058 L109.783019,107.040916 L109.721291,107.085498 L109.714433,107.088927 L109.649275,107.133508 L109.638987,107.136938 L109.57383,107.181519 L109.566971,107.188378 L109.501814,107.232959 L109.494955,107.239818 L109.429798,107.28097 L109.422939,107.287829 L109.357782,107.33241 L109.350923,107.339269 L109.289195,107.38385 L109.278907,107.390709 L109.213749,107.431861 L109.206891,107.43529 L109.141733,107.476442 L109.131445,107.479871 L109.066288,107.521023 L109.059429,107.527882 L108.994272,107.569034 L108.987413,107.575893 L108.922256,107.617045 L108.915397,107.620474 L108.85024,107.661626 L108.839952,107.665056 L108.774794,107.706208 L108.767936,107.713066 L108.702778,107.754218 L108.69249,107.757648 L108.627333,107.7988 L108.617045,107.805658 L108.551887,107.84681 L108.541599,107.853669 L108.473013,107.894821 L108.466154,107.90168 L108.400997,107.939403 L108.390709,107.942832 L108.325551,107.980555 L108.318693,107.987413 L108.250106,108.028565 L108.239818,108.035424 L108.171231,108.073147 L108.164372,108.080005 L108.099215,108.117728 L108.088927,108.121157 L108.02034,108.15888 L108.010052,108.162309 L107.941466,108.200032 L107.934607,108.203461 L107.869449,108.241184 L107.86602,108.244614 L68.1097173,130.39813 L68.106288,130.39813 L68.0445599,130.435853 L68.0342719,130.439282 L67.9691145,130.477005 L67.9588265,130.483863 L67.8936691,130.518157 L67.8833811,130.521586 L67.8182237,130.555879 L67.811365,130.559309 L67.7462076,130.593602 L67.7359196,130.597031 L67.6707622,130.631325 L67.6604742,130.634754 L67.5953168,130.669048 L67.5850288,130.672477 L67.5198714,130.70677 L67.5130127,130.7102 L67.4478553,130.744493 L67.4409967,130.747922 L67.3758392,130.778786 L67.3689806,130.782216 L67.3003938,130.816509 L67.2935352,130.823368 L67.2283778,130.857661 L67.2215191,130.86109 L67.1563617,130.891954 L67.149503,130.895384 L67.0843456,130.926248 L67.0774869,130.929677 L67.0123295,130.963971 L67.0054709,130.9674 L66.9368841,130.998264 L66.9300255,131.001693 L66.8648681,131.032557 L66.8580094,131.035987 L66.7894226,131.066851 L66.782564,131.07028 L66.7174066,131.101144 L66.7105479,131.104573 L66.6453905,131.135437 L66.6351025,131.142296 L66.5665157,131.17316 L66.5596571,131.176589 L66.4910703,131.204024 L66.4842117,131.207453 L66.4156249,131.238317 L66.4087662,131.245176 L66.3401795,131.27604 L66.3298915,131.27947 L66.2647341,131.306904 L66.2578754,131.310334 L66.1892887,131.341198 L66.18243,131.344627 L66.1138433,131.372062 L66.1069846,131.375491 L66.0383979,131.402926 L66.0315392,131.406355 L65.9629524,131.43379 L65.9526644,131.437219 L65.8840777,131.464654 L65.8737897,131.468083 L65.8052029,131.495518 L65.7949149,131.498947 L65.7297575,131.526382 L65.7228989,131.529811 L65.6543121,131.553816 L65.6474534,131.557246 L65.5788667,131.584681 L65.5685787,131.58811 L65.499992,131.615545 L65.489704,131.618974 L65.4211172,131.646409 L65.4108292,131.649838 L65.3422425,131.673843 L65.3319545,131.677273 L65.2633677,131.704707 L65.2530797,131.708137 L65.184493,131.732142 L65.1776343,131.735571 L65.1090476,131.759577 L65.0987595,131.763006 L65.0301728,131.787011 L65.0198848,131.790441 L64.9512981,131.814446 L64.94101,131.817875 L64.8724233,131.841881 L64.8655646,131.84531 L64.7969779,131.869315 L64.7283912,131.893321 L64.7181031,131.89675 L64.6460871,131.917326 L64.6357991,131.920756 L64.5672123,131.941332 L64.5603537,131.944761 L64.4917669,131.968766 L64.4849082,131.972196 L64.4128922,131.992772 L64.4026042,131.996201 L64.3340174,132.016777 L64.3237294,132.020206 L64.2551427,132.040782 L64.2448547,132.044212 L64.1728386,132.068217 L64.1591212,132.071646 L64.0219478,132.112798 L64.0048011,132.119657 L63.8641983,132.160809 L63.8470516,132.164238 L63.7064488,132.20539 L63.6893021,132.20882 L63.5486993,132.246543 L63.5315526,132.253401 L63.3909498,132.291124 L63.3738031,132.294553 L63.2332003,132.332276 L63.2126242,132.335705 L63.0720214,132.369999 L63.0548747,132.373428 L62.9142719,132.407721 L62.8936959,132.411151 L62.7530931,132.445444 L62.7359464,132.448873 L62.5953436,132.479737 L62.5781969,132.483167 L62.4341648,132.514031 L62.4135887,132.51746 L62.2695566,132.548324 L62.2524099,132.551754 L62.1083778,132.579188 L62.0912311,132.582618 L61.9506283,132.606623 L61.9334816,132.610052 L61.7928788,132.637487 L61.7757321,132.640916 L61.6316999,132.664922 L61.6145532,132.668351 L61.4705211,132.692356 L61.4533744,132.695786 L61.3093423,132.716362 L61.2921956,132.719791 L61.1481634,132.740367 L61.1310167,132.743796 L60.9869846,132.764372 L60.9698379,132.767802 L60.8258058,132.788378 L60.8052297,132.791807 L60.6611976,132.808954 L60.6440509,132.812383 L60.5000188,132.82953 L60.4828721,132.832959 L60.3388399,132.850106 L60.1948078,132.863823 L60.1776611,132.863823 L60.0336289,132.874111 L60.0164823,132.877541 L59.8724501,132.887829 L59.8553034,132.887829 L59.7112713,132.898117 L59.6941246,132.898117 L59.5500924,132.908405 L59.5295164,132.911834 L59.3854843,132.922122 L59.3683376,132.922122 L59.2243054,132.928981 L59.2071587,132.928981 L59.0631266,132.935839 L59.0425506,132.935839 L58.8985184,132.939269 L58.8813717,132.939269 L58.7373396,132.942698 L58.7201929,132.942698 L58.5761608,132.946127 L58.0686189,132.946127 L57.9245867,132.942698 L57.7805546,132.939269 L57.7599786,132.939269 L57.6159464,132.935839 L57.61286,132.935839 L57.4688279,132.928981 L57.4516812,132.925551 L57.307649,132.918693 L57.2905023,132.918693 L57.1464702,132.911834 L57.1293235,132.908405 L56.9852914,132.901546 L56.9681447,132.901546 L56.8241125,132.891258 L56.8069658,132.887829 L56.6629337,132.874111 L56.6423577,132.870682 L56.4983255,132.856965 L56.4777495,132.853535 L56.3337173,132.839818 L56.3165707,132.836388 L56.1725385,132.822671 L56.1553918,132.822671 L56.0113597,132.808954 L55.994213,132.805524 L55.8501808,132.788378 L55.8296048,132.788378 L55.6855727,132.771231 L55.6649967,132.767802 L55.5209645,132.747226 L55.5038178,132.743796 L55.3597857,132.72322 L55.342639,132.719791 L55.1986068,132.699215 L55.1814601,132.695786 L55.037428,132.67521 L55.0202813,132.67178 L54.8796785,132.647775 L54.8693905,132.647775 L54.7253583,132.62034 L54.7068399,132.616911 L54.5662371,132.589476 L54.5490904,132.586047 L54.4084876,132.558612 L54.3913409,132.555183 L54.2507381,132.527748 L54.2301621,132.524319 L54.0875017,132.496884 L54.070355,132.493455 L53.9297522,132.462591 L53.9091762,132.455732 L53.7685733,132.424868 L53.7514267,132.421439 L53.6108238,132.387145 L53.5916196,132.380287 L53.4510167,132.345993 L53.4338701,132.339135 L53.2932672,132.301412 L53.2761206,132.297983 L53.1355177,132.26026 L53.1183711,132.253401 L52.9777683,132.215678 L52.9606216,132.20882 L52.8200188,132.171097 L52.8028721,132.164238 L52.6622693,132.123086 L52.6416932,132.116228 L52.5010904,132.075076 L52.4839437,132.068217 L52.3433409,132.027065 L52.3261942,132.020206 L52.1855914,131.979054 L52.1684447,131.975625 L52.0319571,131.931044 L52.0182398,131.927614 L51.9462237,131.903609 L51.9369645,131.903609 L51.8683778,131.883033 L51.8580898,131.879603 L51.789503,131.855598 L51.779215,131.852169 L51.7106283,131.828163 L51.7003403,131.824734 L51.6317535,131.800729 L51.6214655,131.797299 L51.5528788,131.773294 L51.5425908,131.769865 L51.474004,131.745859 L51.4671453,131.74243 L51.3985586,131.718425 L51.3916999,131.714995 L51.3231132,131.69099 L51.3162545,131.687561 L51.2476678,131.660126 L51.2373798,131.656697 L51.168793,131.629262 L51.158505,131.625833 L51.0899183,131.598398 L51.0830596,131.594969 L51.0144729,131.567534 L51.0041849,131.564104 L50.9355981,131.53667 L50.9287395,131.53324 L50.8601527,131.505806 L50.8498647,131.502376 L50.781278,131.474942 L50.7744193,131.471512 L50.7058326,131.444078 L50.6989739,131.440648 L50.6303871,131.413214 L50.6200991,131.409784 L50.5515124,131.38235 L50.5412244,131.37892 L50.4726376,131.351486 L50.4623496,131.348056 L50.3937629,131.320622 L50.3834749,131.317192 L50.3148881,131.289758 L50.3080295,131.286328 L50.2394427,131.255464 L50.2291547,131.252035 L50.1639973,131.221171 L50.1571386,131.217741 L50.0885519,131.186877 L50.0816932,131.183448 L50.0131065,131.152584 L50.0062478,131.149155 L49.9376611,131.12172 L49.9273731,131.118291 L49.8622157,131.087427 L49.8519277,131.083997 L49.7833409,131.053133 L49.7730529,131.049704 L49.7078955,131.01884 L49.7010368,131.011981 L49.6358794,130.981117 L49.6290208,130.977688 L49.5638634,130.946824 L49.5570047,130.943395 L49.488418,130.91253 L49.4815593,130.905672 L49.4129725,130.871378 L49.4061139,130.86452 L49.3409565,130.833656 L49.3306685,130.830226 L49.2620817,130.799362 L49.255223,130.792504 L49.1900656,130.75821 L49.1797776,130.754781 L49.1111909,130.720488 L49.1043322,130.717058 L49.0391748,130.682765 L49.0288868,130.679336 L48.9637294,130.645042 L48.9568707,130.641613 L48.8917133,130.607319 L48.8814253,130.600461 L48.8162679,130.566167 L48.8094092,130.562738 L48.7442518,130.528445 L48.7373932,130.525015 L48.6722358,130.490722 L48.6619478,130.483863 L48.5967904,130.44957 L48.5899317,130.446141 L48.5247743,130.408418 L48.5144863,130.401559 L48.4493289,130.367266 L48.4390409,130.363837 L48.3738835,130.329543 L48.3635954,130.326114 L48.298438,130.29182 L48.28815,130.288391 L48.2229926,130.250668 L48.2127046,130.247239 L48.1509766,130.209516 L48.1406885,130.206087 L48.0789605,130.168364 L48.0755311,130.164935 L12.1360804,109.187681 L12.132651,109.184252 L12.0572056,109.13967 L12.050347,109.136241 L11.9749015,109.09166 L11.9646135,109.08823 L11.8857388,109.043649 L11.8754508,109.04022 L11.8000054,108.992209 L11.7931467,108.98878 L11.7177013,108.940769 L11.7108426,108.93391 L11.6353972,108.8859 L11.6285385,108.879041 L11.5530931,108.83103 L11.5428051,108.827601 L11.4673597,108.783019 L11.4570717,108.776161 L11.3816263,108.72815 L11.3747676,108.721291 L11.2993222,108.673281 L11.3168118,108.673281 L11.2413664,108.62527 L11.2310784,108.618411 L11.155633,108.570401 L11.1487743,108.563542 L11.0733289,108.515531 L11.0637267,108.508672 L10.9882813,108.457232 L10.9779933,108.450374 L10.9025479,108.398934 L10.8956892,108.392075 L10.8202438,108.344064 L10.8133851,108.337206 L10.7379397,108.285766 L10.731081,108.278907 L10.6556356,108.227467 L10.648777,108.220608 L10.5767609,108.169168 L10.5664729,108.162309 L10.4927421,108.110869 L10.4858835,108.104011 L10.4138674,108.052571 L10.405294,108.045712 L10.333278,107.994272 L10.3240188,107.987413 L10.2520027,107.935973 L10.245144,107.932544 L10.1731279,107.881104 L10.1662693,107.874245 L10.095282,107.822805 L10.0884233,107.815946 L10.017779,107.764506 L10.007491,107.761077 L9.93547488,107.709637 L9.92861621,107.702778 L9.85660013,107.647909 L9.84974146,107.64105 L9.77772539,107.58961 L9.76880911,107.582752 L9.69679303,107.527882 L9.68787676,107.521023 L9.61929002,107.466154 L9.61243135,107.459295 L9.54384461,107.404426 L9.53698593,107.400997 L9.4683992,107.346127 L9.46154052,107.339269 L9.39295378,107.284399 L9.38609511,107.277541 L9.31750837,107.222671 L9.3106497,107.215812 L9.24206296,107.160943 L9.23520429,107.154084 L9.16661755,107.099215 L9.15975887,107.092356 L9.09117214,107.037487 L9.08431346,107.030628 L9.01572672,106.97233 L9.00886805,106.9689 L8.94028131,106.914031 L8.93342264,106.907172 L8.8668935,106.852303 L8.86003483,106.845444 L8.79144809,106.787145 L8.78458942,106.780287 L8.71600268,106.725417 L8.70914401,106.718559 L8.64055727,106.66026 L8.63369859,106.656831 L8.56648359,106.601961 L8.55962492,106.595102 L8.49446752,106.540233 L8.48760884,106.533374 L8.42245144,106.475076 L8.41559277,106.468217 L8.35043537,106.409918 L8.34357669,106.40306 L8.27841929,106.344761 L8.27156062,106.337902 L8.20640322,106.279603 L8.19954454,106.272745 L8.13438714,106.214446 L8.12752847,106.207587 L8.06237106,106.145859 L8.05551239,106.14243 L7.99035499,106.084131 L7.98006698,106.077273 L7.91662425,106.015545 L7.90976557,106.008686 L7.84460817,105.950387 L7.8377495,105.943528 L7.77396383,105.8818 L7.76710516,105.874942 L7.70537709,105.813214 L7.69851842,105.806355 L7.63679035,105.744627 L7.62993168,105.737768 L7.56477428,105.67604 L7.55791561,105.669182 L7.4927582,105.607453 L7.48589953,105.604024 L7.42417147,105.542296 L7.41731279,105.535437 L7.35558473,105.473709 L7.34872605,105.466851 L7.28699799,105.405123 L7.28013932,105.398264 L7.21841125,105.336536 L7.21155258,105.329677 L7.14982451,105.267949 L7.14296584,105.26109 L7.08123778,105.199362 L7.0743791,105.192504 L7.01608038,105.130776 L7.0092217,105.123917 L6.94749364,105.062189 L6.94063496,105.05533 L6.8789069,104.990173 L6.87204823,104.983314 L6.8137495,104.918157 L6.80689082,104.911298 L6.7485921,104.846141 L6.74173342,104.839282 L6.68000536,104.774125 L6.67314668,104.767266 L6.61484796,104.702109 L6.60798928,104.69525 L6.54969056,104.630092 L6.54283188,104.623234 L6.48453315,104.558076 L6.47767448,104.551218 L6.41937575,104.48606 L6.41251708,104.479202 L6.35421835,104.414044 L6.35078902,104.407186 L6.29591962,104.342028 L6.28906095,104.335169 L6.23076222,104.270012 L6.22390355,104.263153 L6.16217549,104.194567 L6.15531681,104.187708 L6.09701808,104.122551 L6.09015941,104.115692 L6.03186068,104.047105 L6.02500201,104.040246 L5.97013262,103.975089 L5.96670328,103.96823 L5.91183389,103.903073 L5.90497522,103.896214 L5.85010583,103.827628 L5.84324715,103.820769 L5.78494843,103.752182 L5.77808975,103.745324 L5.72322036,103.680166 L5.71636169,103.673307 L5.65806296,103.60815 L5.65120429,103.601291 L5.5963349,103.536134 L5.58947622,103.529275 L5.53460683,103.460689 L5.52774816,103.45383 L5.47287877,103.385243 L5.46602009,103.378384 L5.4111507,103.309798 L5.40429203,103.302939 L5.34942264,103.234352 L5.34256397,103.227494 L5.28769457,103.158907 L5.28426524,103.152048 L5.23282518,103.083461 L5.22596651,103.076603 L5.17452646,103.008016 L5.17109712,103.001157 L5.11965707,102.932571 L5.11279839,102.925712 L5.06135834,102.853696 L5.05449967,102.846837 L5.00305961,102.778251 L4.99620094,102.771392 L4.94476088,102.702805 L4.94133155,102.695946 L4.88989149,102.62393 L4.88646216,102.617072 L4.8350221,102.545056 L4.83159277,102.538197 L4.78015271,102.46961 L4.77672338,102.462752 L4.72528332,102.394165 L4.71842465,102.387306 L4.66698459,102.31529 L4.66012592,102.308431 L4.60868587,102.236415 L4.60182719,102.226127 L4.55381648,102.154111 L4.5469578,102.147253 L4.49894709,102.075236 L4.49208841,102.068378 L4.4440777,101.996362 L4.43721902,101.989503 L4.38920831,101.917487 L4.38577897,101.910628 L4.33776825,101.838612 L4.33090958,101.828324 L4.28289886,101.756308 L4.27604019,101.749449 L4.22802947,101.677433 L4.2211708,101.670575 L4.17316008,101.598559 L4.16630141,101.5917 L4.11829069,101.519684 L4.11143202,101.512825 L4.06685064,101.440809 L4.0634213,101.43395 L4.01883992,101.361934 L4.01198125,101.351646 L3.96397053,101.27963 L3.95711186,101.269342 L3.90910114,101.197326 L3.9056718,101.190468 L3.85766109,101.115022 L3.85423175,101.104734 L3.80965037,101.032718 L3.80279169,101.025859 L3.75821031,100.953843 L3.75135164,100.946985 L3.70677026,100.871539 L3.69991159,100.861251 L3.65533021,100.789235 L3.65190087,100.782376 L3.60731949,100.706931 L3.60389015,100.700072 L3.55930877,100.628056 L3.5524501,100.617768 L3.50786872,100.542323 L3.50101005,100.532035 L3.45642867,100.456589 L3.44956999,100.446301 L3.40841795,100.370856 L3.40155928,100.363997 L3.3569779,100.288552 L3.35354856,100.281693 L3.31239652,100.206248 L3.30896718,100.199389 L3.26781514,100.123944 L3.2643858,100.113656 L3.22323376,100.03821 L3.21637508,100.027922 L3.17522304,99.9524769 L3.1717937,99.9421889 L3.13064166,99.8633141 L3.12721232,99.8564555 L3.08606028,99.78101 L3.08263094,99.770722 L3.0414789,99.6952766 L3.03804956,99.6849886 L2.99689752,99.6095432 L2.99346818,99.5992552 L2.95574548,99.5203804 L2.95231614,99.5135218 L2.9111641,99.434647 L2.90773476,99.424359 L2.86658272,99.3454843 L2.85972405,99.3386256 L2.82200134,99.2597508 L2.818572,99.2528922 L2.7808493,99.1774468 L2.77741996,99.1671587 L2.73969725,99.088284 L2.73969725,99.0917133 L2.70197455,99.0128386 L2.69511587,99.0025506 L2.65739317,98.9236758 L2.65396383,98.9133878 L2.61624113,98.8379424 L2.61281179,98.8276544 L2.57508908,98.7487796 L2.57165975,98.741921 L2.53393704,98.6630462 L2.5305077,98.6561875 L2.49621433,98.5773128 L2.492785,98.5704541 L2.45506229,98.4915794 L2.45163295,98.4847207 L2.41391025,98.4058459 L2.41048091,98.3989873 L2.3727582,98.3201125 L2.36932887,98.3098245 L2.3350355,98.2309498 L2.33160616,98.2240911 L2.29388346,98.1452163 L2.29045412,98.1349283 L2.25273141,98.0560536 L2.24930208,98.0491949 L2.21500871,97.9703202 L2.21157937,97.9634615 L2.177286,97.8845867 L2.17385666,97.8742987 L2.1395633,97.795424 L2.13613396,97.7885653 L2.10526993,97.7096906 L2.10184059,97.7028319 L2.06754722,97.6239571 L2.06411788,97.6136691 L2.03325385,97.531365 L2.02982451,97.5245064 L1.99553115,97.4456316 L1.99210181,97.4353436 L1.96123778,97.3598982 L1.95780844,97.3496102 L1.92351507,97.2673061 L1.92008573,97.2604474 L1.8892217,97.1781433 L1.88579236,97.1678553 L1.85492833,97.0855512 L1.851499,97.0786926 L1.82063496,96.9963885 L1.81720563,96.9861005 L1.78634159,96.9037964 L1.78291226,96.8969377 L1.75204823,96.8146336 L1.74861889,96.8077749 L1.72118419,96.7254709 L1.71775486,96.7151829 L1.68689082,96.6328788 L1.68346149,96.6260201 L1.65602679,96.543716 L1.65259745,96.533428 L1.62516276,96.4511239 L1.62173342,96.4408359 L1.59086939,96.3585318 L1.58744005,96.3482438 L1.56000536,96.2659397 L1.55657602,96.259081 L1.52914133,96.176777 L1.52571199,96.1699183 L1.49827729,96.0876142 L1.49484796,96.0773262 L1.46741326,95.9950221 L1.46398392,95.9847341 L1.43654923,95.90243 L1.43311989,95.892142 L1.4056852,95.8098379 L1.40225586,95.7995499 L1.37482117,95.7172458 L1.37173476,95.7073007 L1.3477294,95.6249967 L1.34430007,95.618138 L1.31686537,95.5324046 L1.31343603,95.5221165 L1.28943068,95.4363831 L1.28600134,95.4260951 L1.26199598,95.343791 L1.25856664,95.333503 L1.23456129,95.2511989 L1.23113195,95.2409109 L1.20712659,95.1551775 L1.20369725,95.1448895 L1.1796919,95.0591561 L1.17626256,95.0522974 L1.1522572,94.966564 L1.14882786,94.9631346 L1.12482251,94.8774012 L1.12139317,94.8705425 L1.10081715,94.7882384 L1.09738781,94.7813798 L1.07681179,94.6990757 L1.07681179,94.692217 L1.05280643,94.6064836 L1.05280643,94.5961956 L1.03223041,94.5138915 L1.02880107,94.5036035 L1.00822505,94.4212994 L1.00479571,94.4110114 L0.984219692,94.325278 L0.987649029,94.325278 L0.967073007,94.2395445 L0.96364367,94.2326859 L0.943067649,94.1469524 L0.939638312,94.1400938 L0.919062291,94.0543603 L0.915632954,94.0475017 L0.895056932,93.9617683 L0.898486269,93.9583389 L0.877910248,93.8726055 L0.874480911,93.8623175 L0.853904889,93.7765841 L0.850475553,93.766296 L0.833328868,93.6805626 L0.829899531,93.6702746 L0.80932351,93.5845412 L0.805894173,93.5776825 L0.788747488,93.4919491 L0.785318151,93.4816611 L0.768171467,93.3959277 L0.76474213,93.3856397 L0.747595445,93.2999062 L0.730448761,93.2141728 L0.730448761,93.2038848 L0.713302076,93.114722 L0.713302076,93.104434 L0.696155392,93.0187006 L0.692726055,93.0084126 L0.672150033,92.9261085 L0.672150033,92.9158205 L0.655003349,92.8232284 L0.651574012,92.8129404 L0.634427328,92.7237776 L0.630997991,92.7134896 L0.617280643,92.6277562 L0.613851306,92.6174682 L0.600133958,92.5317348 L0.600133958,92.5214468 L0.586416611,92.4357133 L0.586416611,92.4254253 L0.572699263,92.3396919 L0.569269926,92.3294039 L0.555552579,92.2436705 L0.555552579,92.2470998 L0.541835231,92.1613664 L0.541835231,92.1545077 L0.528117883,92.0687743 L0.528117883,92.0584863 L0.514400536,91.9727528 L0.514400536,91.9624648 L0.500683188,91.8767314 L0.500683188,91.8698727 L0.490395177,91.78071 L0.490395177,91.770422 L0.480107167,91.6846885 L0.480107167,91.6778299 L0.466389819,91.5886671 L0.462960482,91.5783791 L0.452672472,91.4926457 L0.452672472,91.4823577 L0.442384461,91.3931949 L0.438955124,91.3829069 L0.428667113,91.2937441 L0.428667113,91.2834561 L0.418379102,91.1942934 L0.414949766,91.1840054 L0.404661755,91.0948426 L0.404661755,91.0845546 L0.394373744,90.9953918 L0.390944407,90.9885332 L0.380656397,90.8993704 L0.373797723,90.8102076 L0.373797723,90.7999196 L0.363509712,90.7107569 L0.360080375,90.7004689 L0.349792364,90.6113061 L0.349792364,90.6010181 L0.342933691,90.5118553 L0.339504354,90.5015673 L0.33264568,90.4124046 L0.33264568,90.4021165 L0.325787006,90.3129538 L0.325787006,90.3026658 L0.318928332,90.213503 L0.312069658,90.1243403 L0.312069658,90.1140522 L0.305210985,90.0248895 L0.305210985,90.0146015 L0.298352311,89.9254387 L0.298352311,89.8146711 L0.294922974,89.7255084 L0.294922974,89.7152204 L0.291493637,89.6260576 L0.291493637,89.6157696 L0.2880643,89.5266068 L0.284634963,89.5163188 L0.281205626,89.4271561 L0.281205626,89.3311346 L0.277776289,89.2419719 L0.277776289,89.2316839 L0.274346952,89.1425211 L0.274346952,45.7271159 L0.277776289,45.6413825 L0.277776289,45.5316437 L0.281205626,45.4424809 L0.281205626,45.1269819 L0.284634963,45.0378192 L0.284634963,45.0309605 L0.2880643,44.9417977 L0.2880643,44.9315097 L0.291493637,44.842347 L0.291493637,44.8320589 L0.294922974,44.7428962 L0.294922974,44.7360375 L0.298352311,44.6468747 L0.298352311,44.6365867 L0.301781648,44.547424 L0.301781648,44.537136 L0.308640322,44.4445439 L0.308640322,44.4342559 L0.315498995,44.3450931 L0.315498995,44.3382344 L0.318928332,44.2490717 L0.318928332,44.2387837 L0.325787006,44.1496209 L0.325787006,44.1393329 L0.329216343,44.0501701 L0.329216343,44.0398821 L0.33264568,43.9507194 L0.33264568,43.9404313 L0.339504354,43.8512686 L0.339504354,43.8409806 L0.346363027,43.7518178 L0.346363027,43.7415298 L0.356651038,43.652367 L0.356651038,43.642079 L0.363509712,43.5529163 L0.366939049,43.5460576 L0.373797723,43.4568948 L0.373797723,43.4500362 L0.384085733,43.3608734 L0.384085733,43.3540147 L0.394373744,43.264852 L0.397803081,43.254564 L0.408091092,43.1654012 L0.408091092,43.1551132 L0.418379102,43.0659504 L0.418379102,43.0590918 L0.428667113,42.969929 L0.428667113,42.9630703 L0.438955124,42.8739076 L0.442384461,42.8636196 L0.452672472,42.7744568 L0.452672472,42.7641688 L0.462960482,42.6784354 L0.462960482,42.6681474 L0.473248493,42.5789846 L0.473248493,42.5686966 L0.483536504,42.4795338 L0.486965841,42.4692458 L0.497253851,42.3835124 L0.497253851,42.3732244 L0.510971199,42.2840616 L0.510971199,42.2737736 L0.52125921,42.1846109 L0.524688547,42.1743228 L0.534976557,42.0885894 L0.538405894,42.0783014 L0.552123242,41.9891386 L0.555552579,41.98228 L0.569269926,41.8931172 L0.569269926,41.8862585 L0.582987274,41.7970958 L0.582987274,41.7902371 L0.596704622,41.7045037 L0.600133958,41.6942157 L0.613851306,41.6084823 L0.613851306,41.5981942 L0.637856664,41.5090315 L0.641286001,41.4987435 L0.655003349,41.41301 L0.655003349,41.402722 L0.672150033,41.3169886 L0.672150033,41.3101299 L0.689296718,41.2243965 L0.689296718,41.2175378 L0.706443403,41.1283751 L0.709872739,41.1215164 L0.727019424,41.035783 L0.730448761,41.0289243 L0.747595445,40.9431909 L0.751024782,40.9329029 L0.768171467,40.8471695 L0.771600804,40.8368814 L0.788747488,40.751148 L0.788747488,40.74086 L0.805894173,40.6551266 L0.805894173,40.6482679 L0.823040857,40.5625345 L0.826470194,40.5556758 L0.843616879,40.4699424 L0.847046216,40.4630837 L0.867622237,40.3773503 L0.867622237,40.3670623 L0.888198259,40.2813289 L0.891627595,40.2710409 L0.90877428,40.1853074 L0.912203617,40.1750194 L0.932779638,40.089286 L0.932779638,40.078998 L0.95335566,39.9932646 L0.956784997,39.9829766 L0.977361018,39.8972431 L0.977361018,39.8869551 L0.99793704,39.8012217 L1.00136638,39.794363 L1.0219424,39.7086296 L1.0219424,39.7017709 L1.04251842,39.6160375 L1.04594776,39.6057495 L1.06995311,39.5200161 L1.06995311,39.5131574 L1.09395847,39.427424 L1.09395847,39.4205653 L1.11796383,39.3348319 L1.12139317,39.3245439 L1.14539853,39.2388104 L1.14539853,39.2285224 L1.16940388,39.142789 L1.17283322,39.132501 L1.19683858,39.0501969 L1.20026792,39.0433382 L1.22427328,38.9576048 L1.22770261,38.9490315 L1.25170797,38.8632981 L1.25513731,38.85301 L1.27914267,38.7693342 L1.282572,38.7624756 L1.3100067,38.6767421 L1.31343603,38.6698835 L1.33744139,38.5875794 L1.34087073,38.5807207 L1.36487609,38.4973878 L1.36830543,38.4905291 L1.39231078,38.4054816 L1.39574012,38.3951936 L1.42317482,38.3115177 L1.42660415,38.3012297 L1.45403885,38.2189257 L1.45403885,38.212067 L1.48147354,38.1297629 L1.48147354,38.1194749 L1.50890824,38.0371708 L1.51233758,38.0303121 L1.53977227,37.948008 L1.54320161,37.93772 L1.5706363,37.8554159 L1.57406564,37.8451279 L1.60150033,37.7628238 L1.60492967,37.7525358 L1.63236437,37.6702317 L1.6357937,37.6633731 L1.66665774,37.581069 L1.67008707,37.5742103 L1.69752177,37.4919062 L1.70095111,37.4833329 L1.7283858,37.4010288 L1.73181514,37.3941701 L1.76267917,37.311866 L1.76610851,37.3050074 L1.79697254,37.2227033 L1.79697254,37.2158446 L1.82783657,37.1335405 L1.83126591,37.1266818 L1.86212994,37.0443778 L1.86555928,37.0340898 L1.89642331,36.9517857 L1.89985265,36.944927 L1.93071668,36.8626229 L1.93414601,36.8523349 L1.96843938,36.7734601 L1.97186872,36.7666015 L2.00616209,36.6842974 L2.00959143,36.6774387 L2.0438848,36.5951346 L2.04731413,36.5848466 L2.0816075,36.5025425 L2.08503684,36.4922545 L2.11933021,36.4099504 L2.12275954,36.3996624 L2.15705291,36.3173583 L2.16048225,36.3070703 L2.19477562,36.2247662 L2.19820496,36.2144782 L2.23249833,36.1321741 L2.23592766,36.1236008 L2.27022103,36.0447261 L2.27365037,36.034438 L2.30794374,35.9555633 L2.31137307,35.9452753 L2.34566644,35.8629712 L2.34909578,35.8561125 L2.38681849,35.7738084 L2.39024782,35.7669498 L2.42797053,35.688075 L2.43139987,35.6812163 L2.46569324,35.6023416 L2.46912257,35.5920536 L2.50684528,35.5131788 L2.51027461,35.5063202 L2.54799732,35.4274454 L2.55142666,35.4205867 L2.58914936,35.341712 L2.5925787,35.3348533 L2.63030141,35.2559786 L2.63373074,35.2456906 L2.67145345,35.1668158 L2.67488279,35.1599571 L2.71260549,35.0810824 L2.71603483,35.0707944 L2.75375754,34.9919196 L2.75718687,34.985061 L2.79490958,34.9061862 L2.79833891,34.8993275 L2.83606162,34.8204528 L2.83949096,34.8135941 L2.87721366,34.7347194 L2.880643,34.7278607 L2.92179504,34.6524153 L2.92522438,34.6455566 L2.96637642,34.5666818 L2.9732351,34.5563938 L3.01438714,34.4775191 L3.01781648,34.4706604 L3.05896852,34.3917857 L3.06239786,34.3814977 L3.1035499,34.3060522 L3.10697924,34.2991936 L3.14813128,34.2237482 L3.15156062,34.2168895 L3.19271266,34.1414441 L3.196142,34.1311561 L3.23729404,34.0557106 L3.24415271,34.048852 L3.28530476,33.9734066 L3.28873409,33.9631186 L3.32988614,33.8876731 L3.33674481,33.8808145 L3.37789685,33.8053691 L3.38132619,33.7985104 L3.42247823,33.723065 L3.42933691,33.712777 L3.47391829,33.6373315 L3.47734762,33.6304729 L3.51849967,33.5550275 L3.521929,33.5481688 L3.56651038,33.4727234 L3.56993972,33.4658647 L3.6145211,33.3904193 L3.61795044,33.3835606 L3.66253182,33.3081152 L3.66939049,33.3012565 L3.71397187,33.2258111 L3.71740121,33.2189524 L3.76198259,33.143507 L3.76884126,33.1366484 L3.81342264,33.0612029 L3.81685198,33.0543443 L3.86143336,32.9788989 L3.86829203,32.9720402 L3.91287341,32.8965948 L3.91630275,32.8897361 L3.96431346,32.8142907 L3.97117214,32.8040027 L4.01918285,32.7285573 L4.02261219,32.7216986 L4.06719357,32.6496825 L4.07405224,32.6428238 L4.12206296,32.5708078 L4.12892163,32.5639491 L4.17350301,32.4885037 L4.17693235,32.481645 L4.22494307,32.4096289 L4.2283724,32.4027703 L4.27638312,32.3307542 L4.2832418,32.3238955 L4.33125251,32.2484501 L4.33811119,32.2415914 L4.3861219,32.1695754 L4.38955124,32.1592873 L4.43756196,32.0872713 L4.44099129,32.0804126 L4.48900201,32.0083965 L4.49243135,32.0015378 L4.5438714,31.9295218 L4.55073007,31.9226631 L4.59874079,31.850647 L4.60559946,31.8437883 L4.65703952,31.7717723 L4.66046885,31.7649136 L4.71190891,31.6928975 L4.71533825,31.6860388 L4.7667783,31.6140228 L4.77020764,31.6071641 L4.82164769,31.535148 L4.82850636,31.5282894 L4.87994642,31.4562733 L4.88337575,31.4494146 L4.93481581,31.3773985 L4.94167448,31.3705399 L4.99311453,31.3019531 L4.99654387,31.2950944 L5.04798392,31.2230784 L5.0548426,31.2162197 L5.10628265,31.147633 L5.11314133,31.1407743 L5.16458138,31.0721875 L5.17144005,31.0653289 L5.22288011,30.9967421 L5.22973878,30.9898835 L5.28117883,30.9212967 L5.28460817,30.914438 L5.33604823,30.8458513 L5.3429069,30.8389926 L5.39777629,30.7704059 L5.40463496,30.7635472 L5.45950435,30.6949605 L5.46636303,30.6881018 L5.52123242,30.6195151 L5.52809109,30.6126564 L5.58296048,30.5440697 L5.58981916,30.537211 L5.64468855,30.4686242 L5.65154722,30.4583362 L5.70641661,30.3897495 L5.70984595,30.3828908 L5.76471534,30.3143041 L5.77157401,30.3074454 L5.8264434,30.2388587 L5.83330208,30.232 L5.88817147,30.1668426 L5.89503014,30.1599839 L5.94989953,30.0913972 L5.9567582,30.0845385 L6.0116276,30.0159518 L6.01848627,30.0090931 L6.076785,29.9439357 L6.08364367,29.937077 L6.13851306,29.8684903 L6.14537173,29.8616316 L6.20024113,29.7964742 L6.2070998,29.7896155 L6.26196919,29.7210288 L6.26882786,29.7141701 L6.32712659,29.6455834 L6.33055593,29.6387247 L6.38885466,29.5735673 L6.39571333,29.5667086 L6.45401206,29.5015512 L6.46087073,29.4946926 L6.51916946,29.4295352 L6.52602813,29.4226765 L6.58432686,29.3575191 L6.5877562,29.3506604 L6.64605492,29.285503 L6.6529136,29.2786443 L6.71121232,29.2134869 L6.718071,29.2066283 L6.77636973,29.1414709 L6.77979906,29.1346122 L6.83809779,29.0694548 L6.84495646,29.0625961 L6.90668453,28.9974387 L6.91011386,28.99058 L6.97184193,28.9254226 L6.9787006,28.918564 L7.043858,28.8568359 L7.05071668,28.8499772 L7.11244474,28.7848198 L7.11930342,28.7779612 L7.18103148,28.7128038 L7.18789015,28.7059451 L7.24961822,28.644217 L7.25647689,28.6373583 L7.31820496,28.5756303 L7.32506363,28.5687716 L7.38679169,28.5070435 L7.39365037,28.5001849 L7.45880777,28.4384568 L7.46566644,28.4315981 L7.52739451,28.3698701 L7.53425318,28.3630114 L7.59598125,28.3012833 L7.60283992,28.2944246 L7.66456798,28.2326966 L7.67142666,28.2258379 L7.73315472,28.1641098 L7.7400134,28.1572512 L7.80174146,28.0955231 L7.80860013,28.0886644 L7.8703282,28.0269364 L7.87718687,28.0200777 L7.93891494,27.9583496 L7.94577361,27.951491 L8.01093101,27.8931922 L8.01778969,27.8863336 L8.08294709,27.8280348 L8.08980576,27.8211762 L8.15496316,27.7594481 L8.16182184,27.7525894 L8.22697924,27.6908614 L8.23383791,27.687432 L8.29899531,27.6291333 L8.30585399,27.625704 L8.37101139,27.5674052 L8.37787006,27.5605466 L8.44302746,27.5022478 L8.44988614,27.4953891 L8.51504354,27.4370904 L8.52190221,27.4302317 L8.58705961,27.371933 L8.59391829,27.3685037 L8.66250502,27.310205 L8.6693637,27.3033463 L8.73795044,27.2450476 L8.74480911,27.2381889 L8.81339585,27.1798902 L8.82025452,27.1730315 L8.88884126,27.1181621 L8.89569993,27.1113034 L8.96428667,27.056434 L8.97114534,27.0495754 L9.03630275,26.994706 L9.04316142,26.9878473 L9.11174816,26.9329779 L9.11860683,26.9261192 L9.18719357,26.8712498 L9.19405224,26.8678205 L9.26263898,26.8129511 L9.26949766,26.8060924 L9.33808439,26.751223 L9.34494307,26.7443644 L9.41352981,26.689495 L9.42038848,26.6826363 L9.49240455,26.6277669 L9.49926323,26.6209082 L9.56784997,26.5660388 L9.57470864,26.5591802 L9.64672472,26.5043108 L9.65358339,26.4974521 L9.72559946,26.4425827 L9.73245814,26.435724 L9.80104488,26.3808547 L9.80790355,26.3774253 L9.87991962,26.3225559 L9.8867783,26.3156973 L9.95536504,26.2608279 L9.96222371,26.2539692 L10.0342398,26.2025291 L10.0410985,26.1956705 L10.1131145,26.1408011 L10.1199732,26.1339424 L10.1919893,26.0825023 L10.198848,26.079073 L10.270864,26.027633 L10.281152,26.0207743 L10.3531681,25.9693342 L10.3600268,25.9659049 L10.4320429,25.9144648 L10.4389015,25.9076062 L10.5109176,25.8527368 L10.5177763,25.8493074 L10.5932217,25.7978674 L10.6000804,25.7910087 L10.6720965,25.7395687 L10.6823845,25.7361393 L10.7544005,25.6846993 L10.7612592,25.6812699 L10.8332753,25.6298299 L10.840134,25.6264005 L10.9155794,25.5749605 L10.922438,25.5681018 L10.9944541,25.5166618 L11.0013128,25.5132324 L11.0767582,25.4652217 L11.0836169,25.4617924 L11.155633,25.4103523 L11.165921,25.4034936 L11.2413664,25.3554829 L11.2482251,25.3486242 L11.3236705,25.2971842 L11.3305291,25.2903255 L11.4059745,25.2423148 L11.4162626,25.2388855 L11.491708,25.1908747 L11.4985666,25.1840161 L11.5740121,25.1360054 L11.5808707,25.132576 L11.6563161,25.0845653 L11.6631748,25.081136 L11.7386202,25.0331253 L11.7454789,25.0296959 L11.8209243,24.9816852 L11.8312123,24.9782559 L11.9066577,24.9336745 L11.9100871,24.9336745 L46.3783523,3.67178567 L46.3817816,3.66835633 L46.4537977,3.62377495 L46.4606564,3.62034561 L46.5361018,3.5723349 L46.5463898,3.56547622 L46.6218352,3.52089484 L46.6321232,3.51403617 L46.7075687,3.46945479 L46.7178567,3.46259612 L46.7933021,3.41801474 L46.8035901,3.4145854 L46.8824648,3.37000402 L46.8893235,3.36314534 L46.9647689,3.31856397 L46.9750569,3.31513463 L47.0505023,3.27055325 L47.057361,3.26712391 L47.1362358,3.22597187 L47.1430944,3.21911319 L47.2219692,3.17796115 L47.2288279,3.17110248 L47.3042733,3.12995044 L47.3145613,3.1265211 L47.393436,3.08536906 L47.4002947,3.07851038 L47.4757401,3.03735834 L47.4860281,3.03049967 L47.5614735,2.98934762 L47.5717616,2.98248895 L47.647207,2.94133691 L47.6540656,2.93447823 L47.7329404,2.89332619 L47.7397991,2.88989685 L47.8152445,2.84874481 L47.8255325,2.84531547 L47.9009779,2.80416343 L47.9112659,2.80073409 L47.9901407,2.75958205 L48.0004287,2.75615271 L48.0793034,2.71500067 L48.0861621,2.71157133 L48.1650368,2.67384863 L48.1753248,2.67041929 L48.2541996,2.63269658 L48.2644876,2.62926725 L48.339933,2.59154454 L48.350221,2.5881152 L48.4290958,2.5503925 L48.4359545,2.54696316 L48.5148292,2.50924046 L48.5251172,2.50581112 L48.603992,2.46808841 L48.61428,2.46122974 L48.6931547,2.42350703 L48.7034427,2.4200777 L48.7823175,2.38235499 L48.7926055,2.37892565 L48.8714802,2.34463228 L48.8817683,2.34120295 L48.960643,2.30690958 L48.9675017,2.3000509 L49.0463764,2.26575754 L49.0532351,2.2623282 L49.1321098,2.22803483 L49.1423979,2.22117616 L49.2212726,2.18688279 L49.2315606,2.18345345 L49.3104354,2.14916008 L49.3207234,2.14573074 L49.3995981,2.11143737 L49.4098861,2.10800804 L49.4887609,2.07371467 L49.4990489,2.07028533 L49.5779236,2.03599196 L49.5882117,2.03256263 L49.6670864,2.00169859 L49.6773744,1.99826926 L49.7562492,1.96397589 L49.7665372,1.96054655 L49.8488413,1.92625318 L49.8591293,1.92282384 L49.9414334,1.88853048 L49.9517214,1.8816718 L50.0305961,1.85080777 L50.0374548,1.84737843 L50.1197589,1.8165144 L50.1300469,1.81308506 L50.2089216,1.78222103 L50.2157803,1.77879169 L50.2980844,1.74792766 L50.3083724,1.74449833 L50.3906765,1.71706363 L50.4009645,1.71363429 L50.4832686,1.68277026 L50.4935566,1.67934092 L50.5758607,1.64847689 L50.5861487,1.64504756 L50.6684528,1.61761286 L50.6787408,1.61418352 L50.7610449,1.58674883 L50.7713329,1.58331949 L50.8502076,1.5558848 L50.8604956,1.55245546 L50.9427997,1.52502076 L50.9530877,1.52159143 L51.0319625,1.49415673 L51.0422505,1.49072739 L51.1245546,1.4632927 L51.1314133,1.45986336 L51.2137173,1.43242867 L51.2240054,1.42899933 L51.3063094,1.40156463 L51.3165975,1.3981353 L51.3989015,1.3707006 L51.4091896,1.36727127 L51.4914936,1.34326591 L51.4983523,1.33983657 L51.5806564,1.31583121 L51.5909444,1.31240188 L51.6732485,1.28839652 L51.6835365,1.28839652 L51.7658406,1.26439116 L51.7761286,1.26096182 L51.8584327,1.23695646 L51.8652914,1.23352713 L51.9475954,1.20952177 L51.9544541,1.20609243 L52.0367582,1.18208707 L52.0470462,1.17865774 L52.1293503,1.15465238 L52.1396383,1.15122304 L52.2219424,1.12721768 L52.2322304,1.12378835 L52.3145345,1.10321232 L52.3248225,1.09978299 L52.4071266,1.07920697 L52.4139853,1.07577763 L52.4962894,1.05177227 L52.5045198,1.04834293 L52.5902532,1.02776691 L52.5971119,1.02776691 L52.6794159,1.00376155 L52.689704,1.00376155 L52.7744086,0.983185532 L52.7846966,0.979756196 L52.87043,0.959180174 L52.880718,0.955750837 L52.9630221,0.935174816 L52.9733101,0.935174816 L53.0590435,0.914598794 L53.0693315,0.914598794 L53.1516356,0.894022773 L53.1619236,0.890593436 L53.2442277,0.873446752 L53.2545157,0.870017415 L53.3368198,0.849441393 L53.3471078,0.846012056 L53.4294119,0.828865372 L53.4396999,0.828865372 L53.522004,0.811718687 L53.532292,0.80828935 L53.6145961,0.791142666 L53.6214548,0.791142666 L53.7037589,0.773995981 L53.7140469,0.770566644 L53.7997803,0.75341996 L53.806639,0.75341996 L53.8923724,0.736273275 L53.8992311,0.732843938 L53.9849645,0.715697254 L53.9952525,0.712267917 L54.0809859,0.695121232 L54.0912739,0.691691896 L54.1770074,0.677974548 L54.1872954,0.677974548 L54.2695995,0.6642572 L54.2798875,0.660827863 L54.3656209,0.643681179 L54.3759089,0.640251842 L54.4616423,0.626534494 L54.4719303,0.626534494 L54.5542344,0.612817147 L54.5645224,0.60938781 L54.6502559,0.595670462 L54.6605439,0.592241125 L54.742848,0.578523778 L54.7497066,0.578523778 L54.8320107,0.56480643 L54.8422987,0.56480643 L54.9280322,0.551089082 L54.9383202,0.547659745 L55.0240536,0.533942398 L55.0343416,0.533942398 L55.120075,0.52022505 L55.130363,0.52022505 L55.2160965,0.506507703 L55.2263845,0.506507703 L55.3121179,0.496219692 L55.3224059,0.496219692 L55.40471,0.485931681 L55.414998,0.485931681 L55.5007314,0.47564367 L55.5110194,0.472214334 L55.5967528,0.461926323 L55.6036115,0.458496986 L55.6893449,0.451638312 L55.699633,0.451638312 L55.781937,0.441350301 L55.7922251,0.441350301 L55.8745291,0.431062291 L55.8848171,0.431062291 L55.9705506,0.42077428 L55.9808386,0.42077428 L56.066572,0.410486269 L56.07686,0.410486269 L56.1591641,0.403627595 L56.1694521,0.403627595 L56.2551855,0.393339585 L56.2654735,0.389910248 L56.351207,0.383051574 L56.361495,0.379622237 L56.4472284,0.372763563 L56.4575164,0.372763563 L56.5418781,0.365904889 L56.5521661,0.365904889 L56.6378995,0.359046216 L56.6481875,0.359046216 L56.733921,0.355616879 L56.744209,0.352187542 L56.8299424,0.345328868 L56.8368011,0.341899531 L56.9225345,0.338470194 L56.9328225,0.338470194 L57.0185559,0.33161152 L57.0254146,0.33161152 L57.111148,0.328182184 L57.121436,0.328182184 L57.2071695,0.324752847 L57.2174575,0.324752847 L57.3031909,0.32132351 L57.3134789,0.32132351 L57.3992123,0.317894173 L57.4095003,0.314464836 L57.4952338,0.311035499 L57.5055218,0.311035499 L57.5912552,0.307606162 L57.6015432,0.307606162 L57.6872766,0.304176825 L57.6975646,0.304176825 L57.7832981,0.300747488 L57.7935861,0.300747488 L57.8793195,0.297318151 L57.8861782,0.297318151 L57.9719116,0.293888814 L58.078221,0.293888814 L58.1639545,0.290459478 L58.362856,0.290459478 L58.3810315,0.260624246 Z M58.3021567,9.51983389 L58.2459156,9.51983389 L58.1896745,9.52051976 L58.1337763,9.52051976 L58.0754776,9.52189149 L58.0171788,9.52326323 L57.9588801,9.5249779 L57.9005814,9.52840723 L57.8422827,9.53183657 L57.7839839,9.53526591 L57.7291145,9.53869524 L57.6708158,9.54212458 L57.6159464,9.54555392 L57.561077,9.54898326 L57.5062076,9.55241259 L57.4479089,9.55584193 L57.3930395,9.55927127 L57.3347408,9.56612994 L57.2764421,9.57298861 L57.2215727,9.57984729 L57.1632739,9.58670596 L57.1049752,9.59356463 L57.0466765,9.60042331 L56.9918071,9.60728198 L56.9335084,9.61414066 L56.878639,9.62099933 L56.8237696,9.627858 L56.7654709,9.63471668 L56.7106015,9.64157535 L56.6557321,9.64843403 L56.6008627,9.6552927 L56.5459933,9.66215137 L56.4876946,9.66901005 L56.4328252,9.67929806 L56.3779558,9.68615673 L56.3196571,9.69644474 L56.2647877,9.70673275 L56.2099183,9.71702076 L56.1550489,9.72730877 L56.1001795,9.73759678 L56.0453101,9.7478848 L55.9904407,9.75817281 L55.9355713,9.76503148 L55.8772726,9.77531949 L55.8224032,9.7856075 L55.7641045,9.79589551 L55.7092351,9.80618352 L55.6543657,9.81647153 L55.5994963,9.82675954 L55.5446269,9.84047689 L55.4897575,9.85419424 L55.4348881,9.86791159 L55.3800188,9.8781996 L55.3251494,9.88848761 L55.27028,9.90220496 L55.2154106,9.9159223 L55.1605412,9.92963965 L55.1056718,9.943357 L55.0508024,9.95707435 L54.995933,9.97079169 L54.9410636,9.98450904 L54.8861942,9.99822639 L54.8313248,10.0119437 L54.7764555,10.0256611 L54.7215861,10.0428078 L54.6667167,10.0565251 L54.6118473,10.0736718 L54.5604072,10.0908185 L54.5055378,10.1079652 L54.4506685,10.1251119 L54.3957991,10.1422585 L54.3409297,10.1594052 L54.2860603,10.1765519 L54.2346202,10.1936986 L54.1797508,10.2108453 L54.1248814,10.2314213 L54.0700121,10.248568 L54.0151427,10.2657147 L53.9602733,10.2862907 L53.9054039,10.3034374 L53.8505345,10.3205841 L53.7990944,10.3377307 L53.7442251,10.3583068 L53.6893557,10.3788828 L53.6344863,10.3994588 L53.5830462,10.4200348 L53.5281768,10.4406109 L53.4767368,10.4611869 L53.4252967,10.4817629 L53.3704273,10.5057683 L53.3155579,10.5263443 L53.2606885,10.5469203 L53.2058192,10.5674963 L53.1543791,10.5915017 L53.102939,10.6120777 L53.0480697,10.6360831 L52.9966296,10.6600884 L52.9451896,10.6840938 L52.8937495,10.7080991 L52.8388801,10.7321045 L52.7874401,10.7561098 L52.7325707,10.7801152 L52.6811306,10.8041206 L52.6296906,10.8281259 L52.5782505,10.8521313 L52.5233811,10.8761366 L52.4719411,10.900142 L52.420501,10.9241474 L52.369061,10.951582 L52.3176209,10.9790167 L52.2661808,11.0030221 L52.2147408,11.0304568 L52.1633007,11.0544622 L52.1118607,11.0818969 L52.0604206,11.1093315 L52.0089806,11.1367662 L51.9575405,11.1642009 L51.9061005,11.1916356 L51.8546604,11.2224997 L51.8066497,11.2499344 L51.7552096,11.2773691 L51.7071989,11.3048038 L51.6557589,11.3356678 L51.6043188,11.3665318 L51.5528788,11.3973958 L51.5048681,11.4248305 L51.453428,11.4556946 L51.4054173,11.4865586 L51.3539772,11.5174226 L51.3025372,11.5482867 L51.2476678,11.58258 L16.8171253,32.8033168 L16.7588265,32.8410395 L16.7039571,32.8753329 L16.6525171,32.9096263 L16.601077,32.9439196 L16.549637,32.978213 L16.4981969,33.0125064 L16.4467569,33.0467997 L16.3953168,33.0810931 L16.3438768,33.1153865 L16.2924367,33.1496798 L16.2409967,33.1839732 L16.1895566,33.2182666 L16.1381165,33.2559893 L16.0901058,33.2902827 L16.0420951,33.324576 L15.9906551,33.3588694 L15.9426443,33.3931628 L15.8946336,33.4274561 L15.8466229,33.4617495 L15.7986122,33.4960429 L15.7506015,33.5303362 L15.7025908,33.5646296 L15.65458,33.6023523 L15.6065693,33.6366457 L15.5585586,33.6743684 L15.5105479,33.7120911 L15.4625372,33.7498138 L15.4145265,33.7875365 L15.3665157,33.8252592 L15.318505,33.8629819 L15.2739236,33.9007046 L15.2259129,33.9384273 L15.1779022,33.97615 L15.1333208,34.0138727 L15.0853101,34.0515954 L15.0372994,34.0893182 L14.992718,34.1270409 L14.9447073,34.1647636 L14.9001259,34.2024863 L14.8555445,34.240209 L14.8109632,34.281361 L14.7663818,34.3225131 L14.7218004,34.3602358 L14.677219,34.3979585 L14.6326376,34.4391105 L14.5880563,34.4802626 L14.5434749,34.5214146 L14.4988935,34.5625666 L14.4543121,34.6037187 L14.4097307,34.6448707 L14.3651494,34.6860228 L14.320568,34.7271748 L14.2759866,34.7683269 L14.2314052,34.8094789 L14.1868238,34.8506309 L14.1456718,34.891783 L14.1010904,34.932935 L14.0599384,34.9775164 L14.015357,35.0186685 L13.974205,35.0632498 L13.9330529,35.1044019 L13.8919009,35.1489833 L13.8507488,35.1901353 L13.8095968,35.2347167 L13.7684447,35.2792981 L13.7238634,35.3238794 L13.6827113,35.3650315 L13.6415593,35.4096129 L13.6004072,35.4541942 L13.5592552,35.4987756 L13.5215325,35.543357 L13.4803804,35.5879384 L13.4392284,35.6325198 L13.3980764,35.6771011 L13.3569243,35.7251119 L13.3157723,35.7696932 L13.2780496,35.8142746 L13.2403269,35.858856 L13.1991748,35.9068667 L13.1614521,35.9514481 L13.1203001,35.9960295 L13.0825774,36.0440402 L13.0448547,36.0886216 L13.0071319,36.1366323 L12.9694092,36.184643 L12.9316865,36.2326537 L12.8939638,36.2806644 L12.8562411,36.3286752 L12.8185184,36.3766859 L12.7842251,36.4246966 L12.7465023,36.4727073 L12.7087796,36.520718 L12.6710569,36.5687287 L12.6333342,36.6167395 L12.5990409,36.6647502 L12.5647475,36.7127609 L12.5304541,36.7607716 L12.4961608,36.8122117 L12.4618674,36.8602224 L12.427574,36.9082331 L12.3932806,36.9596731 L12.3589873,37.0076839 L12.3246939,37.0556946 L12.2904005,37.1037053 L12.2561072,37.151716 L12.2252431,37.2031561 L12.1909498,37.2545961 L12.1566564,37.3026068 L12.122363,37.3540469 L12.091499,37.4054869 L12.060635,37.4534977 L12.0297709,37.5049377 L11.9989069,37.5563778 L11.9680429,37.6078178 L11.9371788,37.6592579 L11.9028855,37.7106979 L11.8685921,37.762138 L11.8377281,37.813578 L11.806864,37.8650181 L11.776,37.9164581 L11.745136,37.9678982 L11.7142719,38.0193382 L11.6834079,38.0707783 L11.6525439,38.1222184 L11.6216798,38.1736584 L11.5908158,38.2250985 L11.5599518,38.2765385 L11.5290877,38.3314079 L11.4982237,38.382848 L11.4673597,38.434288 L11.4364956,38.4891574 L11.409061,38.5405975 L11.3816263,38.5954668 L11.3541916,38.6503362 L11.3267569,38.7052056 L11.2993222,38.7566457 L11.2718875,38.8080857 L11.2444528,38.8629551 L11.2170181,38.9143952 L11.1895834,38.9692646 L11.165578,39.0207046 L11.1381433,39.075574 L11.1107086,39.1304434 L11.0832739,39.1853128 L11.0558392,39.2401822 L11.0284046,39.2950516 L11.0043992,39.349921 L10.9803938,39.4047904 L10.9563885,39.4596597 L10.9323831,39.5145291 L10.9083778,39.5693985 L10.8843724,39.6242679 L10.860367,39.6791373 L10.8363617,39.7340067 L10.8123563,39.7888761 L10.7917803,39.8437455 L10.7677749,39.8986149 L10.7437696,39.9569136 L10.7197642,40.011783 L10.6957589,40.0666524 L10.6717535,40.1215218 L10.6511775,40.1763912 L10.6271721,40.2346899 L10.6031668,40.2895593 L10.5825908,40.3444287 L10.5620147,40.4027274 L10.5414387,40.4575968 L10.5208627,40.5158955 L10.5002867,40.5707649 L10.4797106,40.6290636 L10.4591346,40.6873624 L10.4385586,40.7456611 L10.4214119,40.8039598 L10.4008359,40.8588292 L10.3802599,40.9171279 L10.3631132,40.9754267 L10.3459665,41.030296 L10.3288198,41.0885948 L10.3082438,41.1468935 L10.2910971,41.2017629 L10.2739504,41.2566323 L10.2568038,41.314931 L10.2362277,41.3732297 L10.219081,41.4315285 L10.2019344,41.4863979 L10.1847877,41.5446966 L10.167641,41.6029953 L10.1504943,41.661294 L10.1333476,41.7195928 L10.1162009,41.7778915 L10.1024836,41.8361902 L10.0887662,41.8944889 L10.0716196,41.9527877 L10.0579022,42.0110864 L10.0407555,42.0693851 L10.0270382,42.1276839 L10.0133208,42.1859826 L9.99960348,42.2477106 L9.98588614,42.3060094 L9.97216879,42.3643081 L9.95845144,42.4226068 L9.94473409,42.4809056 L9.93101674,42.5392043 L9.9172994,42.597503 L9.90701139,42.6558017 L9.89329404,42.7141005 L9.88300603,42.7723992 L9.87271802,42.8341273 L9.86243001,42.8958553 L9.852142,42.9575834 L9.84185399,43.0193115 L9.83156597,43.0776102 L9.82127796,43.1359089 L9.81098995,43.197637 L9.80070194,43.259365 L9.79041393,43.3176638 L9.78012592,43.3759625 L9.76983791,43.4342612 L9.7595499,43.4959893 L9.75269123,43.5577173 L9.74583255,43.6194454 L9.73897388,43.6777441 L9.72868587,43.7394722 L9.71839786,43.7977709 L9.71153918,43.859499 L9.70468051,43.9212271 L9.69782184,43.9829551 L9.69096316,44.0446832 L9.68410449,44.1064113 L9.67724581,44.1681393 L9.67038714,44.226438 L9.66352847,44.2881661 L9.65666979,44.3498942 L9.65324046,44.4116222 L9.64638178,44.4733503 L9.63952311,44.5350784 L9.63609377,44.5968064 L9.63266443,44.6585345 L9.6292351,44.7202626 L9.62580576,44.7819906 L9.62237642,44.8437187 L9.61894709,44.9054468 L9.61551775,44.9671748 L9.61208841,45.0289029 L9.60865908,45.0906309 L9.60522974,45.152359 L9.60522974,45.2140871 L9.6018004,45.2758151 L9.59837106,45.3375432 L9.59837106,45.3992713 L9.59494173,45.4609993 L9.59494173,88.9449913 L9.59837106,89.0067194 L9.59837106,89.1919035 L9.6018004,89.2502023 L9.60522974,89.3119303 L9.60865908,89.3736584 L9.61208841,89.4353865 L9.61551775,89.4971145 L9.61894709,89.5588426 L9.62237642,89.6205707 L9.62580576,89.6822987 L9.6292351,89.7440268 L9.63609377,89.8057549 L9.63952311,89.8674829 L9.64295244,89.929211 L9.64638178,89.990939 L9.65324046,90.0492378 L9.66009913,90.1109658 L9.6669578,90.1692646 L9.67038714,90.2309926 L9.67724581,90.2892914 L9.68410449,90.3475901 L9.69096316,90.4058888 L9.69782184,90.4641875 L9.70468051,90.5259156 L9.71153918,90.5842143 L9.71839786,90.6425131 L9.72525653,90.7042411 L9.7321152,90.7659692 L9.73897388,90.8242679 L9.74583255,90.885996 L9.75612056,90.9442947 L9.76640857,91.0025934 L9.77669658,91.0608922 L9.78698459,91.1191909 L9.79727261,91.180919 L9.80756062,91.2392177 L9.81784863,91.2975164 L9.82813664,91.3558151 L9.83842465,91.4141139 L9.852142,91.4724126 L9.86243001,91.5307113 L9.87271802,91.58901 L9.88300603,91.6473088 L9.89672338,91.7056075 L9.91044072,91.7639062 L9.92072873,91.822205 L9.93444608,91.8805037 L9.94816343,91.9388024 L9.96188078,91.9971011 L9.97559812,92.0553999 L9.98931547,92.1136986 L10.0030328,92.1719973 L10.0167502,92.230296 L10.0304675,92.2851654 L10.0476142,92.3400348 L10.0613315,92.3983336 L10.0750489,92.4566323 L10.0887662,92.514931 L10.1059129,92.5732297 L10.1196303,92.6280991 L10.1333476,92.6863979 L10.147065,92.7412672 L10.1642117,92.799566 L10.177929,92.8544354 L10.1950757,92.9127341 L10.2122224,92.9710328 L10.2293691,93.0259022 L10.2465157,93.0842009 L10.2636624,93.1424997 L10.2808091,93.1973691 L10.2979558,93.2556678 L10.3185318,93.3105372 L10.3391078,93.3654066 L10.3596839,93.420276 L10.3802599,93.4751453 L10.3974066,93.5300147 L10.4179826,93.5883135 L10.4385586,93.6431829 L10.4591346,93.6980522 L10.4797106,93.7529216 L10.5002867,93.807791 L10.5208627,93.8626604 L10.5414387,93.9175298 L10.5620147,93.9723992 L10.5825908,94.0272686 L10.6031668,94.082138 L10.6271721,94.1370074 L10.6511775,94.1918768 L10.6717535,94.2467461 L10.6923295,94.3016155 L10.7129056,94.3564849 L10.7334816,94.4113543 L10.7540576,94.4662237 L10.778063,94.5210931 L10.8020683,94.5759625 L10.8260737,94.6308319 L10.850079,94.6857013 L10.8740844,94.7405707 L10.8980898,94.7954401 L10.9220951,94.8503094 L10.9461005,94.9051788 L10.9701058,94.9600482 L10.9941112,95.0149176 L11.0181165,95.069787 L11.0421219,95.1212271 L11.0695566,95.1760965 L11.0969913,95.2275365 L11.124426,95.2824059 L11.1518607,95.3338459 L11.1792954,95.385286 L11.2067301,95.4367261 L11.2341648,95.4881661 L11.2615995,95.5396062 L11.2890342,95.5910462 L11.3198982,95.6424863 L11.3473329,95.6939263 L11.3747676,95.7453664 L11.4022023,95.7968064 L11.4330663,95.8482465 L11.4639303,95.8996865 L11.491365,95.9511266 L11.5187997,96.0025666 L11.5462344,96.0540067 L11.5770985,96.1054468 L11.6045332,96.1568868 L11.6353972,96.2048975 L11.6662612,96.2563376 L11.6971253,96.3043483 L11.7279893,96.3557883 L11.7588533,96.4072284 L11.7897173,96.4552391 L11.8205814,96.5032498 L11.8514454,96.5512605 L11.8823094,96.5992713 L11.9131735,96.6507113 L11.9440375,96.7021514 L11.9783309,96.7501621 L12.0091949,96.7981728 L12.0400589,96.8496129 L12.070923,96.8976236 L12.101787,96.9456343 L12.1360804,96.993645 L12.1703737,97.0416557 L12.2046671,97.0930958 L12.2389605,97.1411065 L12.2732539,97.1891172 L12.3075472,97.2371279 L12.3418406,97.2851386 L12.376134,97.3331494 L12.4104273,97.3811601 L12.4447207,97.4291708 L12.4824434,97.4771815 L12.5201661,97.5251922 L12.5544595,97.5732029 L12.5887528,97.6212137 L12.6230462,97.6692244 L12.6573396,97.7172351 L12.6950623,97.7618165 L12.732785,97.8063979 L12.7705077,97.8544086 L12.8082304,97.89899 L12.8459531,97.9470007 L12.8836758,97.991582 L12.9213985,98.0361634 L12.9591212,98.0807448 L12.9968439,98.1253262 L13.0345666,98.1699076 L13.0722894,98.2144889 L13.1100121,98.2590703 L13.1477348,98.3036517 L13.1854575,98.3482331 L13.2231802,98.3928145 L13.2609029,98.4373958 L13.3020549,98.4819772 L13.343207,98.5265586 L13.3809297,98.57114 L13.4220817,98.612292 L13.4632338,98.6568734 L13.5043858,98.6980255 L13.5455378,98.7426068 L13.5832605,98.7871882 L13.6244126,98.8317696 L13.6655646,98.8729216 L13.7067167,98.9140737 L13.7478687,98.9552257 L13.7890208,98.9963778 L13.8301728,99.0409591 L13.8713248,99.0821112 L13.9124769,99.1232632 L13.9536289,99.1644153 L13.994781,99.2055673 L14.035933,99.2467194 L14.0805144,99.2878714 L14.1216664,99.3290234 L14.1628185,99.3701755 L14.2073999,99.4113275 L14.2485519,99.4524796 L14.289704,99.4936316 L14.3342853,99.5347837 L14.3788667,99.5725064 L14.4234481,99.6102291 L14.4680295,99.6513811 L14.5126109,99.6925332 L14.5571922,99.7302559 L14.6017736,99.7679786 L14.646355,99.8091306 L14.6909364,99.8502827 L14.7355177,99.8880054 L14.7835285,99.9257281 L14.8315392,99.9634508 L14.8795499,100.001173 L14.9241313,100.038896 L14.9687127,100.076619 L15.0167234,100.114342 L15.0613048,100.152064 L15.1093155,100.186358 L15.1538969,100.22408 L15.2019076,100.261803 L15.2499183,100.299526 L15.297929,100.337248 L15.3425104,100.371542 L15.3905211,100.409265 L15.4385318,100.443558 L15.4865425,100.481281 L15.5345532,100.519003 L15.582564,100.553297 L15.6305747,100.58759 L15.6820147,100.621883 L15.7300255,100.656177 L15.7780362,100.69047 L15.8260469,100.724764 L15.8740576,100.759057 L15.9220683,100.79335 L15.970079,100.827644 L16.0215191,100.861937 L16.0729591,100.892801 L16.1243992,100.927094 L16.1724099,100.961388 L16.22385,100.995681 L16.27529,101.029975 L16.3233007,101.060839 L16.3747408,101.091703 L16.4261808,101.122567 L16.4776209,101.153431 L16.529061,101.184295 L16.580501,101.215159 L16.6353704,101.246023 L16.6868104,101.276887 L16.7382505,101.307751 L16.7965492,101.342044 L52.694848,122.329586 L52.7394293,122.357021 L52.777152,122.377597 L52.8183041,122.398173 L52.8594561,122.418749 L52.9006082,122.439325 L52.9383309,122.46333 L52.9794829,122.483906 L53.020635,122.504482 L53.061787,122.525058 L53.102939,122.549064 L53.1440911,122.56964 L53.1852431,122.590216 L53.2263952,122.610792 L53.2675472,122.631368 L53.3086993,122.651944 L53.3498513,122.67252 L53.3910033,122.693096 L53.4321554,122.713672 L53.4698781,122.734248 L53.5110301,122.754824 L53.5521822,122.7754 L53.5933342,122.792547 L53.6344863,122.813123 L53.6756383,122.830269 L53.7167904,122.847416 L53.7579424,122.864563 L53.7990944,122.885139 L53.8402465,122.905715 L53.8813985,122.922861 L53.9225506,122.943437 L53.9637026,122.960584 L54.0048547,122.977731 L54.0460067,122.994877 L54.0871587,123.012024 L54.1283108,123.029171 L54.1694628,123.046317 L54.2106149,123.063464 L54.2517669,123.080611 L54.292919,123.097758 L54.334071,123.111475 L54.3786524,123.128622 L54.4198044,123.145768 L54.4609565,123.162915 L54.5021085,123.180062 L54.5432605,123.197208 L54.5844126,123.210926 L54.6255646,123.228072 L54.6667167,123.24179 L54.7078687,123.255507 L54.7524501,123.269224 L54.7936021,123.282942 L54.8313248,123.296659 L54.9204876,123.324094 L55.006221,123.351528 L55.0919545,123.375534 L55.1776879,123.399539 L55.2634213,123.423545 L55.3491547,123.44755 L55.4348881,123.471555 L55.5206216,123.495561 L55.606355,123.519566 L55.6920884,123.540142 L55.7778218,123.560718 L55.8635553,123.581294 L55.9492887,123.598441 L56.0350221,123.619017 L56.1207555,123.636163 L56.2064889,123.65331 L56.2922224,123.670457 L56.3779558,123.684174 L56.4636892,123.701321 L56.5494226,123.715038 L56.6351561,123.728756 L56.7243188,123.742473 L56.8100522,123.75619 L56.899215,123.766478 L56.9883778,123.776766 L57.0775405,123.787054 L57.1667033,123.793913 L57.2524367,123.800772 L57.3415995,123.80763 L57.4273329,123.814489 L57.5164956,123.821348 L57.6056584,123.828206 L57.6913918,123.835065 L57.7771253,123.838494 L57.8628587,123.841924 L57.9520214,123.845353 L58.3909766,123.845353 L58.4801393,123.841924 L58.5693021,123.841924 L58.6584648,123.838494 L58.7476276,123.835065 L58.8367904,123.828206 L58.9259531,123.821348 L59.0151159,123.817918 L59.1042786,123.81106 L59.1934414,123.804201 L59.2826042,123.797342 L59.3683376,123.790484 L59.4575003,123.780196 L59.5466631,123.769908 L59.6323965,123.75962 L59.7215593,123.749332 L59.8072927,123.735614 L59.8964555,123.721897 L59.9821889,123.70818 L60.0713516,123.694462 L60.1570851,123.680745 L60.2428185,123.663598 L60.3285519,123.649881 L60.4177147,123.632734 L60.5034481,123.615587 L60.5891815,123.595011 L60.6749149,123.577865 L60.7606484,123.557289 L60.8463818,123.536713 L60.9321152,123.516137 L61.0178486,123.495561 L61.103582,123.471555 L61.1893155,123.44755 L61.2750489,123.423545 L61.3607823,123.399539 L61.4499451,123.372104 L61.4910971,123.358387 L61.5322492,123.34467 L61.5734012,123.330952 L61.6179826,123.317235 L61.6591346,123.303518 L61.703716,123.2898 L61.7448681,123.276083 L61.7860201,123.262366 L61.8306015,123.248648 L61.8717535,123.234931 L61.9129056,123.221214 L61.9574869,123.204067 L61.998639,123.19035 L62.0432204,123.176632 L62.0843724,123.159486 L62.1255244,123.145768 L62.1666765,123.132051 L62.2078285,123.118334 L62.2524099,123.101187 L62.293562,123.08747 L62.334714,123.070323 L62.375866,123.053176 L62.4170181,123.036029 L62.4581701,123.018883 L62.4993222,123.001736 L62.5404742,122.984589 L62.5816263,122.967443 L62.6227783,122.950296 L62.6639303,122.933149 L62.7050824,122.916003 L62.7462344,122.895427 L62.7873865,122.874851 L62.8285385,122.857704 L62.8696906,122.837128 L62.9108426,122.816552 L62.9519946,122.799405 L62.9931467,122.778829 L63.0342987,122.758253 L63.0754508,122.737677 L63.1131735,122.717101 L63.1543255,122.696525 L63.1954776,122.675949 L63.2366296,122.655373 L63.2777816,122.634797 L63.3189337,122.614221 L63.3600857,122.593645 L63.4012378,122.573069 L63.4423898,122.552493 L63.4801125,122.531917 L63.5212646,122.511341 L63.5624166,122.490765 L63.606998,122.46676 L103.377018,100.302955 L103.425029,100.27895 L103.46961,100.254944 L103.510762,100.230939 L103.551914,100.206934 L103.593066,100.182928 L103.634218,100.155494 L103.6788,100.131488 L103.719952,100.107483 L103.761104,100.083478 L103.802256,100.059472 L103.843408,100.032038 L103.88456,100.004603 L103.925712,99.9805975 L103.966864,99.9565921 L104.008016,99.9325867 L104.049168,99.905152 L104.09032,99.8777173 L104.131472,99.853712 L104.172624,99.8262773 L104.213776,99.8022719 L104.251499,99.7748372 L104.289222,99.7474025 L104.326944,99.7199678 L104.364667,99.6925332 L104.40239,99.6650985 L104.443542,99.6376638 L104.481265,99.6102291 L104.522417,99.5827944 L104.560139,99.5553597 L104.597862,99.527925 L104.635585,99.5004903 L104.673307,99.4730556 L104.71103,99.4456209 L104.752182,99.4181862 L104.789905,99.3873222 L104.827628,99.3598875 L104.86535,99.3290234 L104.903073,99.3015887 L104.940796,99.2707247 L104.978518,99.2398607 L105.016241,99.2089967 L105.053964,99.181562 L105.091687,99.1541273 L105.129409,99.1232632 L105.163703,99.0923992 L105.201425,99.0615352 L105.239148,99.0306711 L105.273441,99.0032364 L105.311164,98.9723724 L105.348887,98.938079 L105.38318,98.907215 L105.420903,98.876351 L105.455196,98.8454869 L105.48949,98.8146229 L105.523783,98.7803295 L105.561506,98.7494655 L105.595799,98.7151721 L105.630092,98.6843081 L105.664386,98.6500147 L105.698679,98.6157214 L105.732973,98.5848573 L105.767266,98.550564 L105.801559,98.5196999 L105.835853,98.4854066 L105.870146,98.4511132 L105.904439,98.4168198 L105.938733,98.3825265 L105.969597,98.3482331 L106.00389,98.3139397 L106.034754,98.2796463 L106.069048,98.245353 L106.103341,98.2110596 L106.137634,98.1767662 L106.168498,98.1424729 L106.199362,98.1081795 L106.230226,98.0738861 L106.26109,98.0395928 L106.295384,98.0052994 L106.326248,97.971006 L106.357112,97.9367127 L106.387976,97.9024193 L106.41884,97.8681259 L106.449704,97.8338326 L106.480568,97.7995392 L106.511432,97.7652458 L106.542296,97.7275231 L106.57316,97.6898004 L106.604024,97.6520777 L106.634888,97.6177843 L106.665752,97.583491 L106.696616,97.5491976 L106.72748,97.5114749 L106.758344,97.4771815 L106.789208,97.4394588 L106.816643,97.4051654 L106.844078,97.3674427 L106.871512,97.32972 L106.898947,97.2954267 L106.929811,97.257704 L106.957246,97.2199812 L106.984681,97.1822585 L107.012115,97.1445358 L107.03955,97.1068131 L107.066985,97.0690904 L107.094419,97.0313677 L107.121854,96.993645 L107.149289,96.9559223 L107.176723,96.9181996 L107.204158,96.8804769 L107.231593,96.8427542 L107.259027,96.8050315 L107.283033,96.7673088 L107.307038,96.7261567 L107.334473,96.6850047 L107.361908,96.647282 L107.385913,96.6095593 L107.409918,96.5718366 L107.437353,96.5306845 L107.464788,96.4929618 L107.488793,96.4552391 L107.512798,96.4140871 L107.536804,96.372935 L107.560809,96.331783 L107.584814,96.2906309 L107.60882,96.2529082 L107.632825,96.2117562 L107.656831,96.1706042 L107.680836,96.1328814 L107.704841,96.0917294 L107.728847,96.0505774 L107.752852,96.0094253 L107.773428,95.9682733 L107.794004,95.9271212 L107.818009,95.8859692 L107.842015,95.8448171 L107.862591,95.8036651 L107.886596,95.7625131 L107.910601,95.721361 L107.931177,95.680209 L107.951754,95.6390569 L107.97233,95.5944756 L107.992906,95.5533235 L108.016911,95.5121715 L108.040916,95.4710194 L108.061492,95.4298674 L108.082068,95.3887153 L108.102644,95.3475633 L108.12322,95.3029819 L108.143796,95.2618299 L108.164372,95.2206778 L108.184948,95.1760965 L108.205524,95.1349444 L108.2261,95.0937924 L108.246676,95.049211 L108.267253,95.0046296 L108.287829,94.9600482 L108.308405,94.9188962 L108.325551,94.8777441 L108.342698,94.8331628 L108.359845,94.7885814 L108.376991,94.744 L108.394138,94.702848 L108.411285,94.6582666 L108.428431,94.6136852 L108.445578,94.5691038 L108.462725,94.5279518 L108.479871,94.4833704 L108.497018,94.438789 L108.514165,94.3942076 L108.531311,94.3496263 L108.548458,94.3050449 L108.562175,94.2604635 L108.575893,94.2158821 L108.58961,94.1713007 L108.603328,94.1267194 L108.620474,94.082138 L108.637621,94.0375566 L108.654768,93.9929752 L108.671914,93.9483938 L108.685632,93.9038125 L108.702778,93.8592311 L108.716496,93.8146497 L108.730213,93.7700683 L108.74736,93.7254869 L108.761077,93.6809056 L108.774794,93.6363242 L108.788512,93.5917428 L108.802229,93.5471614 L108.812517,93.50258 L108.826234,93.4579987 L108.839952,93.4134173 L108.853669,93.3688359 L108.867386,93.3242545 L108.877674,93.2796731 L108.887962,93.2316624 L108.90168,93.187081 L108.911968,93.1424997 L108.922256,93.0944889 L108.935973,93.0499076 L108.946261,93.0053262 L108.956549,92.9607448 L108.966837,92.9161634 L108.977125,92.8681527 L108.987413,92.8235713 L108.997701,92.77899 L109.00456,92.7309792 L109.014848,92.6829685 L109.025136,92.6383871 L109.031995,92.5903764 L109.042283,92.545795 L109.052571,92.4977843 L109.062859,92.4497736 L109.073147,92.4051922 L109.083435,92.3571815 L109.090293,92.3091708 L109.100581,92.2611601 L109.10744,92.2165787 L109.117728,92.1719973 L109.124587,92.1239866 L109.131445,92.0759759 L109.138304,92.0279652 L109.145163,91.9799545 L109.152021,91.9319437 L109.15888,91.883933 L109.165739,91.8359223 L109.169168,91.7879116 L109.176027,91.7433302 L109.179456,91.6953195 L109.186315,91.6473088 L109.193173,91.6027274 L109.200032,91.5547167 L109.203461,91.506706 L109.206891,91.4586952 L109.21032,91.4106845 L109.213749,91.3626738 L109.220608,91.3146631 L109.224038,91.2666524 L109.227467,91.2186417 L109.230896,91.1706309 L109.234326,91.1226202 L109.237755,91.0746095 L109.241184,91.0265988 L109.244614,90.9785881 L109.248043,90.9305774 L109.251472,90.8825666 L109.254902,90.8345559 L109.258331,90.7865452 L109.258331,90.6905238 L109.26176,90.6425131 L109.26176,43.1698593 L109.258331,43.1276785 L109.254902,43.0830971 L109.254902,43.0385157 L109.251472,42.9939344 L109.251472,42.949353 L109.248043,42.9047716 L109.248043,42.8601902 L109.244614,42.8156088 L109.241184,42.7744568 L109.237755,42.7298754 L109.234326,42.685294 L109.230896,42.6407127 L109.227467,42.5995606 L109.224038,42.5549792 L109.220608,42.5138272 L109.217179,42.4692458 L109.21032,42.4246644 L109.206891,42.3835124 L109.203461,42.3423603 L109.196603,42.3012083 L109.193173,42.2600563 L109.186315,42.2154749 L109.182885,42.1743228 L109.176027,42.1331708 L109.169168,42.0885894 L109.165739,42.044008 L109.162309,42.002856 L109.155451,41.9651333 L109.141733,41.8749417 L109.131445,41.7874936 L109.117728,41.6983309 L109.104011,41.6125975 L109.086864,41.526864 L109.069717,41.4411306 L109.056,41.3553972 L109.038853,41.2696638 L109.018277,41.1839303 L108.997701,41.0981969 L108.977125,41.0124635 L108.956549,40.9267301 L108.935973,40.8409967 L108.915397,40.7552632 L108.894821,40.6695298 L108.870816,40.5837964 L108.84681,40.498063 L108.822805,40.4123295 L108.79537,40.3265961 L108.771365,40.244292 L108.74393,40.1619879 L108.716496,40.0796839 L108.689061,39.9973798 L108.661626,39.9150757 L108.630762,39.8327716 L108.599898,39.7504675 L108.569034,39.6715928 L108.53817,39.5892887 L108.507306,39.5069846 L108.476442,39.4246805 L108.442149,39.3458058 L108.411285,39.2635017 L108.376991,39.1846269 L108.342698,39.1057522 L108.308405,39.0268774 L108.270682,38.9480027 L108.236388,38.8691279 L108.198666,38.7902532 L108.160943,38.7113784 L108.12322,38.635933 L108.082068,38.5570583 L108.044346,38.4781835 L108.003194,38.3993088 L107.962042,38.3238634 L107.920889,38.248418 L107.879737,38.1729725 L107.838585,38.0975271 L107.797433,38.0220817 L107.752852,37.9466363 L107.708271,37.8711909 L107.663689,37.7957455 L107.615678,37.7203001 L107.571097,37.648284 L107.526516,37.5762679 L107.478505,37.5042518 L107.430494,37.4322358 L107.382484,37.3602197 L107.334473,37.2882036 L107.286462,37.2161875 L107.238451,37.1441715 L107.187011,37.0755847 L107.135571,37.006998 L107.084131,36.9384113 L107.032691,36.8698245 L106.981251,36.8012378 L106.926382,36.732651 L106.871512,36.6640643 L106.816643,36.5954776 L106.761774,36.5268908 L106.706904,36.4617334 L106.648605,36.396576 L106.593736,36.3314186 L106.535437,36.2662612 L106.477139,36.2011038 L106.41884,36.1359464 L106.360541,36.070789 L106.302242,36.0056316 L106.240514,35.9439035 L106.178786,35.8821755 L106.117058,35.8204474 L106.05533,35.7587194 L105.993602,35.6969913 L105.928445,35.6352632 L105.863287,35.5735352 L105.79813,35.5152364 L105.732973,35.4569377 L105.667815,35.398639 L105.602658,35.3403403 L105.5375,35.2820415 L105.468914,35.2237428 L105.400327,35.1688734 L105.33174,35.114004 L105.266583,35.0591346 L105.194567,35.0008359 L105.163703,34.9768305 L105.129409,34.9493958 L105.095116,34.9219612 L105.060823,34.8945265 L105.026529,34.8670918 L104.992236,34.8430864 L104.957942,34.8156517 L104.923649,34.788217 L104.885926,34.7607823 L104.848204,34.7333476 L104.81391,34.7059129 L104.779617,34.6784782 L104.745324,34.6510435 L104.71103,34.6270382 L104.676737,34.5996035 L104.639014,34.5721688 L104.604721,34.5481634 L104.570427,34.5241581 L104.532705,34.4967234 L104.494982,34.472718 L104.457259,34.4487127 L104.422966,34.4247073 L104.385243,34.4007019 L104.34752,34.3766966 L104.309798,34.3526912 L104.272075,34.3286859 L104.234352,34.3046805 L104.19663,34.2806752 L104.158907,34.2566698 L104.121184,34.2326644 L104.083461,34.2086591 L104.045739,34.1880831 L104.008016,34.167507 L103.963435,34.1435017 L65.1574012,11.3764769 L65.1025318,11.3428694 L65.0528064,11.3154347 L65.0013664,11.2845707 L64.9499263,11.2537066 L64.8995151,11.2252431 L64.848075,11.1978084 L64.7983496,11.1703737 L64.7469096,11.142939 L64.6954695,11.1155044 L64.6440295,11.0880697 L64.5936182,11.060635 L64.5421782,11.0332003 L64.4907381,11.0057656 L64.4392981,10.9783309 L64.387858,10.9508962 L64.336418,10.9234615 L64.2849779,10.8960268 L64.232509,10.8720214 L64.181069,10.8445867 L64.1296289,10.8205814 L64.0781889,10.796576 L64.0267488,10.7691413 L63.9735941,10.745136 L63.9221541,10.7211306 L63.870714,10.6971253 L63.8172163,10.6731199 L63.7657763,10.6491145 L63.7143362,10.6285385 L63.6611815,10.6045332 L63.6090556,10.5805278 L63.5576155,10.5565224 L63.5044608,10.5359464 L63.4530208,10.5153704 L63.3981514,10.4947944 L63.3453396,10.470789 L63.2911561,10.450213 L63.2362867,10.4262076 L63.1814173,10.4056316 L63.1282626,10.3850556 L63.0751078,10.3644796 L63.0212672,10.3439035 L62.9663979,10.3233275 L62.9115285,10.3027515 L62.8600884,10.2821755 L62.8086484,10.2650288 L62.7572083,10.2478821 L62.7023389,10.2273061 L62.6474695,10.2101594 L62.5960295,10.1930127 L62.5411601,10.175866 L62.4862907,10.1587194 L62.4348506,10.1415727 L62.3799812,10.124426 L62.3251119,10.1072793 L62.2702425,10.0901326 L62.2188024,10.0729859 L62.163933,10.0558392 L62.1090636,10.0386926 L62.0541942,10.0215459 L61.9993248,10.0078285 L61.9444555,9.99068185 L61.8895861,9.9769645 L61.8347167,9.95981782 L61.7798473,9.94610047 L61.7249779,9.93238312 L61.6701085,9.91866577 L61.6152391,9.90151909 L61.5603697,9.88780174 L61.5055003,9.87408439 L61.4506309,9.86379638 L61.3957616,9.85007904 L61.3408922,9.83636169 L61.2860228,9.82264434 L61.2311534,9.81235633 L61.176284,9.79863898 L61.1214146,9.78835097 L61.0665452,9.77806296 L61.0116758,9.76434561 L60.9568064,9.7540576 L60.901937,9.74376959 L60.8470676,9.73348158 L60.7921983,9.72319357 L60.7373289,9.71290556 L60.6824595,9.70261755 L60.6241608,9.69232954 L60.5692914,9.68547086 L60.514422,9.67861219 L60.4595526,9.67175352 L60.4046832,9.66489484 L60.3498138,9.65460683 L60.2949444,9.64431882 L60.240075,9.63746015 L60.1817763,9.62717214 L60.1269069,9.62031346 L60.0720375,9.61002545 L60.0171681,9.60316678 L59.9622987,9.5963081 L59.9074293,9.58944943 L59.8525599,9.58259076 L59.7976906,9.57573208 L59.7393918,9.56887341 L59.6845224,9.56544407 L59.629653,9.5585854 L59.5747837,9.55172672 L59.5199143,9.54829739 L59.4650449,9.54486805 L59.4101755,9.54143871 L59.3553061,9.53800938 L59.3004367,9.53458004 L59.242138,9.5311507 L59.1838392,9.52772137 L59.1289699,9.52429203 L59.0741005,9.52086269 L59.0192311,9.52086269 L58.9643617,9.51743336 L58.9094923,9.51400402 L58.8511936,9.51400402 L58.7963242,9.51057468 L58.7414548,9.50714534 L58.6900147,9.50371601 L58.6351453,9.50028667 L58.5219772,9.50028667 L58.4671078,9.49685733 L58.3573691,9.49685733 L58.3021567,9.51983389 Z" fill="#000000"></path>
				<polygon fill="#000000" fill-rule="nonzero" points="32.2049029 101.851301 32.2049029 30.7885814 47.0724501 30.7885814 47.0724501 56.6732163 71.7348694 56.6732163 71.7348694 30.7885814 86.6456263 30.7885814 86.6456263 101.851301 71.7348694 101.851301 71.7348694 70.7794508 47.0724501 70.7794508 47.0724501 101.851301"></polygon>
    </g>
</svg>
